<mxfile host="app.diagrams.net" modified="2023-08-24T18:17:25.376Z" agent="Mozilla/5.0 (Macintosh; Intel Mac OS X 10_15_7) AppleWebKit/537.36 (KHTML, like Gecko) Chrome/116.0.0.0 Safari/537.36" etag="5NVhAY2a91siln4d7WTq" version="21.6.9" type="github" pages="2">
  <diagram name="Page-1" id="_ZpUL0hX9ULFd7SisSlQ">
    <mxGraphModel dx="1595" dy="2774" grid="0" gridSize="10" guides="1" tooltips="1" connect="1" arrows="1" fold="1" page="1" pageScale="1" pageWidth="827" pageHeight="1169" math="0" shadow="1">
      <root>
        <mxCell id="0" />
        <mxCell id="1" parent="0" />
        <mxCell id="4-7ApPX3nYWWJ4g4WrPT-283" value="" style="rounded=1;whiteSpace=wrap;html=1;dashed=1;dashPattern=8 8;" vertex="1" parent="1">
          <mxGeometry x="900" y="1520" width="1290" height="480" as="geometry" />
        </mxCell>
        <mxCell id="4-7ApPX3nYWWJ4g4WrPT-74" style="edgeStyle=orthogonalEdgeStyle;rounded=0;orthogonalLoop=1;jettySize=auto;html=1;exitX=0.5;exitY=0;exitDx=0;exitDy=0;entryX=0.5;entryY=1;entryDx=0;entryDy=0;" edge="1" parent="1" source="dLc1B_IZl05POrYxlycI-2" target="4-7ApPX3nYWWJ4g4WrPT-72">
          <mxGeometry relative="1" as="geometry" />
        </mxCell>
        <mxCell id="dLc1B_IZl05POrYxlycI-2" value="&lt;h3&gt;Tập trung đa đầu&lt;/h3&gt;" style="rounded=0;whiteSpace=wrap;html=1;fillColor=#66B2FF;" vertex="1" parent="1">
          <mxGeometry x="1129" y="130" width="140" height="50" as="geometry" />
        </mxCell>
        <mxCell id="4-7ApPX3nYWWJ4g4WrPT-10" value="" style="edgeStyle=orthogonalEdgeStyle;rounded=0;orthogonalLoop=1;jettySize=auto;html=1;" edge="1" parent="1" source="dLc1B_IZl05POrYxlycI-5" target="4-7ApPX3nYWWJ4g4WrPT-8">
          <mxGeometry relative="1" as="geometry" />
        </mxCell>
        <mxCell id="dLc1B_IZl05POrYxlycI-5" value="&lt;h3&gt;Mã hoá vị trí&lt;/h3&gt;" style="rounded=0;whiteSpace=wrap;html=1;fillColor=#99CCFF;" vertex="1" parent="1">
          <mxGeometry x="670" y="460" width="130" height="40" as="geometry" />
        </mxCell>
        <mxCell id="4-7ApPX3nYWWJ4g4WrPT-14" value="" style="edgeStyle=orthogonalEdgeStyle;rounded=0;orthogonalLoop=1;jettySize=auto;html=1;" edge="1" parent="1" source="dLc1B_IZl05POrYxlycI-6" target="4-7ApPX3nYWWJ4g4WrPT-4">
          <mxGeometry relative="1" as="geometry" />
        </mxCell>
        <mxCell id="dLc1B_IZl05POrYxlycI-6" value="&lt;h3&gt;Mạng truyền xuôi theo vị trí&lt;/h3&gt;" style="rounded=0;whiteSpace=wrap;html=1;fillColor=#66B2FF;" vertex="1" parent="1">
          <mxGeometry x="819" y="100" width="140" height="50" as="geometry" />
        </mxCell>
        <mxCell id="4-7ApPX3nYWWJ4g4WrPT-13" value="" style="edgeStyle=orthogonalEdgeStyle;rounded=0;orthogonalLoop=1;jettySize=auto;html=1;" edge="1" parent="1">
          <mxGeometry relative="1" as="geometry">
            <mxPoint x="890" y="220" as="sourcePoint" />
            <mxPoint x="890" y="150" as="targetPoint" />
          </mxGeometry>
        </mxCell>
        <mxCell id="dLc1B_IZl05POrYxlycI-7" value="&lt;h3&gt;Cộng &amp;amp; chuẩn hoá&amp;nbsp;&lt;/h3&gt;" style="rounded=0;whiteSpace=wrap;html=1;" vertex="1" parent="1">
          <mxGeometry x="819" y="220" width="140" height="50" as="geometry" />
        </mxCell>
        <mxCell id="4-7ApPX3nYWWJ4g4WrPT-12" value="" style="edgeStyle=orthogonalEdgeStyle;rounded=0;orthogonalLoop=1;jettySize=auto;html=1;" edge="1" parent="1" source="dLc1B_IZl05POrYxlycI-8" target="dLc1B_IZl05POrYxlycI-7">
          <mxGeometry relative="1" as="geometry" />
        </mxCell>
        <mxCell id="dLc1B_IZl05POrYxlycI-8" value="&lt;h3&gt;Tập trung đa đầu&lt;/h3&gt;" style="rounded=0;whiteSpace=wrap;html=1;fillColor=#66B2FF;" vertex="1" parent="1">
          <mxGeometry x="819" y="350" width="140" height="50" as="geometry" />
        </mxCell>
        <mxCell id="dLc1B_IZl05POrYxlycI-12" value="&lt;h3&gt;Kết Nối Dày Đặc&lt;/h3&gt;" style="rounded=0;whiteSpace=wrap;html=1;" vertex="1" parent="1">
          <mxGeometry x="320" y="290" width="140" height="50" as="geometry" />
        </mxCell>
        <mxCell id="dLc1B_IZl05POrYxlycI-28" style="edgeStyle=orthogonalEdgeStyle;rounded=0;orthogonalLoop=1;jettySize=auto;html=1;exitX=1;exitY=1;exitDx=0;exitDy=0;entryX=0.25;entryY=1;entryDx=0;entryDy=0;" edge="1" parent="1" source="dLc1B_IZl05POrYxlycI-13" target="dLc1B_IZl05POrYxlycI-16">
          <mxGeometry relative="1" as="geometry">
            <Array as="points">
              <mxPoint x="220" y="330" />
              <mxPoint x="260" y="330" />
              <mxPoint x="260" y="480" />
              <mxPoint x="355" y="480" />
            </Array>
          </mxGeometry>
        </mxCell>
        <mxCell id="dLc1B_IZl05POrYxlycI-13" value="&lt;h3&gt;Tập Trung&lt;/h3&gt;" style="rounded=0;whiteSpace=wrap;html=1;" vertex="1" parent="1">
          <mxGeometry x="80" y="290" width="140" height="50" as="geometry" />
        </mxCell>
        <mxCell id="dLc1B_IZl05POrYxlycI-23" style="edgeStyle=orthogonalEdgeStyle;rounded=0;orthogonalLoop=1;jettySize=auto;html=1;exitX=0.5;exitY=0;exitDx=0;exitDy=0;entryX=0.5;entryY=1;entryDx=0;entryDy=0;" edge="1" parent="1" source="dLc1B_IZl05POrYxlycI-14" target="dLc1B_IZl05POrYxlycI-13">
          <mxGeometry relative="1" as="geometry" />
        </mxCell>
        <mxCell id="dLc1B_IZl05POrYxlycI-29" value="" style="edgeStyle=orthogonalEdgeStyle;rounded=0;orthogonalLoop=1;jettySize=auto;html=1;" edge="1" parent="1" source="dLc1B_IZl05POrYxlycI-14" target="dLc1B_IZl05POrYxlycI-16">
          <mxGeometry relative="1" as="geometry" />
        </mxCell>
        <mxCell id="dLc1B_IZl05POrYxlycI-14" value="&lt;h3&gt;Hồi Tiếp&amp;nbsp;&lt;/h3&gt;" style="rounded=0;whiteSpace=wrap;html=1;" vertex="1" parent="1">
          <mxGeometry x="80" y="410" width="140" height="50" as="geometry" />
        </mxCell>
        <mxCell id="dLc1B_IZl05POrYxlycI-22" style="edgeStyle=orthogonalEdgeStyle;rounded=0;orthogonalLoop=1;jettySize=auto;html=1;exitX=0.5;exitY=0;exitDx=0;exitDy=0;entryX=0.5;entryY=1;entryDx=0;entryDy=0;" edge="1" parent="1" source="dLc1B_IZl05POrYxlycI-15" target="dLc1B_IZl05POrYxlycI-14">
          <mxGeometry relative="1" as="geometry" />
        </mxCell>
        <mxCell id="dLc1B_IZl05POrYxlycI-15" value="&lt;font size=&quot;3&quot;&gt;Embedding&amp;nbsp;&lt;/font&gt;" style="rounded=0;whiteSpace=wrap;html=1;fontStyle=1" vertex="1" parent="1">
          <mxGeometry x="80" y="520" width="140" height="50" as="geometry" />
        </mxCell>
        <mxCell id="dLc1B_IZl05POrYxlycI-31" style="edgeStyle=orthogonalEdgeStyle;rounded=0;orthogonalLoop=1;jettySize=auto;html=1;exitX=0.5;exitY=0;exitDx=0;exitDy=0;entryX=0.5;entryY=1;entryDx=0;entryDy=0;" edge="1" parent="1" source="dLc1B_IZl05POrYxlycI-16" target="dLc1B_IZl05POrYxlycI-12">
          <mxGeometry relative="1" as="geometry" />
        </mxCell>
        <mxCell id="dLc1B_IZl05POrYxlycI-32" style="rounded=0;orthogonalLoop=1;jettySize=auto;html=1;exitX=0.5;exitY=0;exitDx=0;exitDy=0;entryX=1;entryY=0.25;entryDx=0;entryDy=0;edgeStyle=orthogonalEdgeStyle;curved=1;" edge="1" parent="1" source="dLc1B_IZl05POrYxlycI-16" target="dLc1B_IZl05POrYxlycI-13">
          <mxGeometry relative="1" as="geometry">
            <Array as="points">
              <mxPoint x="390" y="370" />
              <mxPoint x="290" y="370" />
              <mxPoint x="290" y="303" />
            </Array>
          </mxGeometry>
        </mxCell>
        <mxCell id="dLc1B_IZl05POrYxlycI-16" value="&lt;h3&gt;Hồi Tiếp&amp;nbsp;&lt;/h3&gt;" style="rounded=0;whiteSpace=wrap;html=1;" vertex="1" parent="1">
          <mxGeometry x="320" y="410" width="140" height="50" as="geometry" />
        </mxCell>
        <mxCell id="dLc1B_IZl05POrYxlycI-30" style="edgeStyle=orthogonalEdgeStyle;rounded=0;orthogonalLoop=1;jettySize=auto;html=1;exitX=0.5;exitY=0;exitDx=0;exitDy=0;entryX=0.5;entryY=1;entryDx=0;entryDy=0;" edge="1" parent="1" source="dLc1B_IZl05POrYxlycI-17" target="dLc1B_IZl05POrYxlycI-16">
          <mxGeometry relative="1" as="geometry" />
        </mxCell>
        <mxCell id="dLc1B_IZl05POrYxlycI-17" value="&lt;font size=&quot;3&quot;&gt;Embedding&amp;nbsp;&lt;/font&gt;" style="rounded=0;whiteSpace=wrap;html=1;fontStyle=1" vertex="1" parent="1">
          <mxGeometry x="320" y="520" width="140" height="50" as="geometry" />
        </mxCell>
        <mxCell id="dLc1B_IZl05POrYxlycI-18" value="&lt;h2&gt;Bộ Mã Hoá&lt;/h2&gt;" style="text;html=1;strokeColor=none;fillColor=none;align=center;verticalAlign=middle;whiteSpace=wrap;rounded=0;" vertex="1" parent="1">
          <mxGeometry x="80" y="210" width="160" height="30" as="geometry" />
        </mxCell>
        <mxCell id="dLc1B_IZl05POrYxlycI-19" value="&lt;h2&gt;Bộ Giải Mã&amp;nbsp;&lt;/h2&gt;" style="text;html=1;strokeColor=none;fillColor=none;align=center;verticalAlign=middle;whiteSpace=wrap;rounded=0;" vertex="1" parent="1">
          <mxGeometry x="300" y="210" width="190" height="30" as="geometry" />
        </mxCell>
        <mxCell id="dLc1B_IZl05POrYxlycI-25" style="edgeStyle=orthogonalEdgeStyle;rounded=0;orthogonalLoop=1;jettySize=auto;html=1;exitX=0.5;exitY=0;exitDx=0;exitDy=0;entryX=0.5;entryY=1;entryDx=0;entryDy=0;" edge="1" parent="1" source="dLc1B_IZl05POrYxlycI-20" target="dLc1B_IZl05POrYxlycI-15">
          <mxGeometry relative="1" as="geometry" />
        </mxCell>
        <mxCell id="dLc1B_IZl05POrYxlycI-20" value="&lt;h2&gt;Nguồn&amp;nbsp;&lt;/h2&gt;" style="text;html=1;strokeColor=none;fillColor=none;align=center;verticalAlign=middle;whiteSpace=wrap;rounded=0;" vertex="1" parent="1">
          <mxGeometry x="120" y="630" width="60" height="30" as="geometry" />
        </mxCell>
        <mxCell id="dLc1B_IZl05POrYxlycI-34" style="edgeStyle=orthogonalEdgeStyle;rounded=0;orthogonalLoop=1;jettySize=auto;html=1;exitX=0.5;exitY=0;exitDx=0;exitDy=0;entryX=0.5;entryY=1;entryDx=0;entryDy=0;" edge="1" parent="1" source="dLc1B_IZl05POrYxlycI-21" target="dLc1B_IZl05POrYxlycI-17">
          <mxGeometry relative="1" as="geometry" />
        </mxCell>
        <mxCell id="dLc1B_IZl05POrYxlycI-21" value="&lt;h2&gt;Mục Tiêu&lt;/h2&gt;" style="text;html=1;strokeColor=none;fillColor=none;align=center;verticalAlign=middle;whiteSpace=wrap;rounded=0;" vertex="1" parent="1">
          <mxGeometry x="330" y="630" width="120" height="30" as="geometry" />
        </mxCell>
        <mxCell id="dLc1B_IZl05POrYxlycI-33" value="" style="endArrow=classic;html=1;rounded=0;entryX=0.857;entryY=1.018;entryDx=0;entryDy=0;entryPerimeter=0;" edge="1" parent="1" target="dLc1B_IZl05POrYxlycI-13">
          <mxGeometry width="50" height="50" relative="1" as="geometry">
            <mxPoint x="150" y="380" as="sourcePoint" />
            <mxPoint x="320" y="370" as="targetPoint" />
            <Array as="points">
              <mxPoint x="200" y="380" />
            </Array>
          </mxGeometry>
        </mxCell>
        <mxCell id="dLc1B_IZl05POrYxlycI-35" value="Chuỗi sang chuỗi có tập trung" style="text;html=1;strokeColor=none;fillColor=none;align=center;verticalAlign=middle;whiteSpace=wrap;rounded=0;fontStyle=1;fontSize=23;fontFamily=Helvetica;" vertex="1" parent="1">
          <mxGeometry x="100" y="80" width="360" height="100" as="geometry" />
        </mxCell>
        <mxCell id="dLc1B_IZl05POrYxlycI-38" value="x&amp;nbsp; n" style="text;html=1;strokeColor=none;fillColor=none;align=center;verticalAlign=middle;whiteSpace=wrap;rounded=0;fontSize=14;" vertex="1" parent="1">
          <mxGeometry x="480" y="420" width="60" height="30" as="geometry" />
        </mxCell>
        <mxCell id="dLc1B_IZl05POrYxlycI-39" value="n&amp;nbsp; x" style="text;html=1;strokeColor=none;fillColor=none;align=center;verticalAlign=middle;whiteSpace=wrap;rounded=0;fontSize=14;" vertex="1" parent="1">
          <mxGeometry y="420" width="60" height="30" as="geometry" />
        </mxCell>
        <mxCell id="4-7ApPX3nYWWJ4g4WrPT-9" value="" style="edgeStyle=orthogonalEdgeStyle;rounded=0;orthogonalLoop=1;jettySize=auto;html=1;" edge="1" parent="1" source="4-7ApPX3nYWWJ4g4WrPT-2" target="4-7ApPX3nYWWJ4g4WrPT-8">
          <mxGeometry relative="1" as="geometry" />
        </mxCell>
        <mxCell id="4-7ApPX3nYWWJ4g4WrPT-2" value="&lt;font size=&quot;3&quot;&gt;Embedding&amp;nbsp;&lt;/font&gt;" style="rounded=0;whiteSpace=wrap;html=1;fontStyle=1" vertex="1" parent="1">
          <mxGeometry x="829" y="540" width="120" height="40" as="geometry" />
        </mxCell>
        <mxCell id="4-7ApPX3nYWWJ4g4WrPT-77" style="edgeStyle=orthogonalEdgeStyle;rounded=0;orthogonalLoop=1;jettySize=auto;html=1;exitX=0.5;exitY=0;exitDx=0;exitDy=0;entryX=0;entryY=0.5;entryDx=0;entryDy=0;" edge="1" parent="1" source="4-7ApPX3nYWWJ4g4WrPT-4" target="dLc1B_IZl05POrYxlycI-2">
          <mxGeometry relative="1" as="geometry" />
        </mxCell>
        <mxCell id="4-7ApPX3nYWWJ4g4WrPT-78" style="edgeStyle=orthogonalEdgeStyle;rounded=0;orthogonalLoop=1;jettySize=auto;html=1;exitX=0.5;exitY=0;exitDx=0;exitDy=0;entryX=0;entryY=0.75;entryDx=0;entryDy=0;" edge="1" parent="1" source="4-7ApPX3nYWWJ4g4WrPT-4" target="dLc1B_IZl05POrYxlycI-2">
          <mxGeometry relative="1" as="geometry" />
        </mxCell>
        <mxCell id="4-7ApPX3nYWWJ4g4WrPT-4" value="&lt;h3&gt;Cộng &amp;amp; chuẩn hoá&amp;nbsp;&lt;/h3&gt;" style="rounded=0;whiteSpace=wrap;html=1;" vertex="1" parent="1">
          <mxGeometry x="819" y="-20" width="140" height="50" as="geometry" />
        </mxCell>
        <mxCell id="4-7ApPX3nYWWJ4g4WrPT-7" style="edgeStyle=orthogonalEdgeStyle;rounded=0;orthogonalLoop=1;jettySize=auto;html=1;exitX=0.5;exitY=0;exitDx=0;exitDy=0;entryX=0.5;entryY=1;entryDx=0;entryDy=0;" edge="1" parent="1" source="4-7ApPX3nYWWJ4g4WrPT-5" target="4-7ApPX3nYWWJ4g4WrPT-2">
          <mxGeometry relative="1" as="geometry" />
        </mxCell>
        <mxCell id="4-7ApPX3nYWWJ4g4WrPT-5" value="&lt;h2&gt;Nguồn&amp;nbsp;&lt;/h2&gt;" style="text;html=1;strokeColor=none;fillColor=none;align=center;verticalAlign=middle;whiteSpace=wrap;rounded=0;" vertex="1" parent="1">
          <mxGeometry x="860" y="640" width="60" height="30" as="geometry" />
        </mxCell>
        <mxCell id="4-7ApPX3nYWWJ4g4WrPT-81" style="edgeStyle=orthogonalEdgeStyle;rounded=0;orthogonalLoop=1;jettySize=auto;html=1;exitX=0.5;exitY=0;exitDx=0;exitDy=0;entryX=0.5;entryY=1;entryDx=0;entryDy=0;" edge="1" parent="1" source="4-7ApPX3nYWWJ4g4WrPT-6" target="4-7ApPX3nYWWJ4g4WrPT-46">
          <mxGeometry relative="1" as="geometry" />
        </mxCell>
        <mxCell id="4-7ApPX3nYWWJ4g4WrPT-6" value="&lt;h2&gt;Mục Tiêu&lt;/h2&gt;" style="text;html=1;strokeColor=none;fillColor=none;align=center;verticalAlign=middle;whiteSpace=wrap;rounded=0;" vertex="1" parent="1">
          <mxGeometry x="1139" y="630" width="120" height="30" as="geometry" />
        </mxCell>
        <mxCell id="4-7ApPX3nYWWJ4g4WrPT-11" value="" style="edgeStyle=orthogonalEdgeStyle;rounded=0;orthogonalLoop=1;jettySize=auto;html=1;" edge="1" parent="1" source="4-7ApPX3nYWWJ4g4WrPT-8" target="dLc1B_IZl05POrYxlycI-8">
          <mxGeometry relative="1" as="geometry" />
        </mxCell>
        <mxCell id="4-7ApPX3nYWWJ4g4WrPT-8" value="&lt;h1&gt;+&lt;/h1&gt;" style="ellipse;whiteSpace=wrap;html=1;aspect=fixed;fillColor=#33FFFF;fontColor=#121111;" vertex="1" parent="1">
          <mxGeometry x="869" y="460" width="40" height="40" as="geometry" />
        </mxCell>
        <mxCell id="4-7ApPX3nYWWJ4g4WrPT-16" value="" style="endArrow=classic;html=1;rounded=0;entryX=0.25;entryY=1;entryDx=0;entryDy=0;" edge="1" parent="1">
          <mxGeometry width="50" height="50" relative="1" as="geometry">
            <mxPoint x="894" y="430" as="sourcePoint" />
            <mxPoint x="858" y="400" as="targetPoint" />
            <Array as="points">
              <mxPoint x="858" y="430" />
            </Array>
          </mxGeometry>
        </mxCell>
        <mxCell id="4-7ApPX3nYWWJ4g4WrPT-17" value="" style="endArrow=classic;html=1;rounded=0;entryX=0.75;entryY=1;entryDx=0;entryDy=0;" edge="1" parent="1" target="dLc1B_IZl05POrYxlycI-8">
          <mxGeometry width="50" height="50" relative="1" as="geometry">
            <mxPoint x="890" y="430" as="sourcePoint" />
            <mxPoint x="870" y="330" as="targetPoint" />
            <Array as="points">
              <mxPoint x="924" y="430" />
            </Array>
          </mxGeometry>
        </mxCell>
        <mxCell id="4-7ApPX3nYWWJ4g4WrPT-18" value="" style="endArrow=classic;html=1;rounded=0;entryX=0;entryY=0.5;entryDx=0;entryDy=0;edgeStyle=orthogonalEdgeStyle;curved=1;" edge="1" parent="1">
          <mxGeometry width="50" height="50" relative="1" as="geometry">
            <mxPoint x="860" y="430" as="sourcePoint" />
            <mxPoint x="819" y="246" as="targetPoint" />
            <Array as="points">
              <mxPoint x="790" y="430" />
              <mxPoint x="790" y="246" />
            </Array>
          </mxGeometry>
        </mxCell>
        <mxCell id="4-7ApPX3nYWWJ4g4WrPT-19" value="" style="endArrow=classic;html=1;rounded=0;entryX=0;entryY=0.5;entryDx=0;entryDy=0;" edge="1" parent="1" target="4-7ApPX3nYWWJ4g4WrPT-4">
          <mxGeometry width="50" height="50" relative="1" as="geometry">
            <mxPoint x="890" y="180" as="sourcePoint" />
            <mxPoint x="930" y="170" as="targetPoint" />
            <Array as="points">
              <mxPoint x="770" y="180" />
              <mxPoint x="770" y="5" />
            </Array>
          </mxGeometry>
        </mxCell>
        <mxCell id="4-7ApPX3nYWWJ4g4WrPT-37" value="" style="edgeStyle=orthogonalEdgeStyle;rounded=0;orthogonalLoop=1;jettySize=auto;html=1;entryX=1;entryY=0.5;entryDx=0;entryDy=0;" edge="1" parent="1" source="4-7ApPX3nYWWJ4g4WrPT-38" target="4-7ApPX3nYWWJ4g4WrPT-49">
          <mxGeometry relative="1" as="geometry" />
        </mxCell>
        <mxCell id="4-7ApPX3nYWWJ4g4WrPT-38" value="&lt;h3&gt;Mã hoá vị trí&lt;/h3&gt;" style="rounded=0;whiteSpace=wrap;html=1;fillColor=#99CCFF;" vertex="1" parent="1">
          <mxGeometry x="1290" y="470" width="130" height="40" as="geometry" />
        </mxCell>
        <mxCell id="4-7ApPX3nYWWJ4g4WrPT-39" value="" style="edgeStyle=orthogonalEdgeStyle;rounded=0;orthogonalLoop=1;jettySize=auto;html=1;" edge="1" parent="1" source="4-7ApPX3nYWWJ4g4WrPT-40" target="4-7ApPX3nYWWJ4g4WrPT-47">
          <mxGeometry relative="1" as="geometry" />
        </mxCell>
        <mxCell id="4-7ApPX3nYWWJ4g4WrPT-40" value="&lt;h3&gt;Mạng truyền xuôi theo vị trí&lt;/h3&gt;" style="rounded=0;whiteSpace=wrap;html=1;fillColor=#3399FF;" vertex="1" parent="1">
          <mxGeometry x="1129" y="-110" width="140" height="50" as="geometry" />
        </mxCell>
        <mxCell id="4-7ApPX3nYWWJ4g4WrPT-73" style="edgeStyle=orthogonalEdgeStyle;rounded=0;orthogonalLoop=1;jettySize=auto;html=1;exitX=0.5;exitY=0;exitDx=0;exitDy=0;entryX=0.5;entryY=1;entryDx=0;entryDy=0;" edge="1" parent="1" source="4-7ApPX3nYWWJ4g4WrPT-42" target="dLc1B_IZl05POrYxlycI-2">
          <mxGeometry relative="1" as="geometry" />
        </mxCell>
        <mxCell id="4-7ApPX3nYWWJ4g4WrPT-42" value="&lt;h3&gt;Cộng &amp;amp; chuẩn hoá&amp;nbsp;&lt;/h3&gt;" style="rounded=0;whiteSpace=wrap;html=1;" vertex="1" parent="1">
          <mxGeometry x="1129" y="230" width="140" height="50" as="geometry" />
        </mxCell>
        <mxCell id="4-7ApPX3nYWWJ4g4WrPT-43" value="" style="edgeStyle=orthogonalEdgeStyle;rounded=0;orthogonalLoop=1;jettySize=auto;html=1;" edge="1" parent="1" source="4-7ApPX3nYWWJ4g4WrPT-44" target="4-7ApPX3nYWWJ4g4WrPT-42">
          <mxGeometry relative="1" as="geometry" />
        </mxCell>
        <mxCell id="4-7ApPX3nYWWJ4g4WrPT-44" value="&lt;h3&gt;Tập trung đa đầu có mặt nạ&lt;/h3&gt;" style="rounded=0;whiteSpace=wrap;html=1;" vertex="1" parent="1">
          <mxGeometry x="1129" y="360" width="140" height="50" as="geometry" />
        </mxCell>
        <mxCell id="4-7ApPX3nYWWJ4g4WrPT-45" value="" style="edgeStyle=orthogonalEdgeStyle;rounded=0;orthogonalLoop=1;jettySize=auto;html=1;" edge="1" parent="1" source="4-7ApPX3nYWWJ4g4WrPT-46" target="4-7ApPX3nYWWJ4g4WrPT-49">
          <mxGeometry relative="1" as="geometry" />
        </mxCell>
        <mxCell id="4-7ApPX3nYWWJ4g4WrPT-46" value="&lt;font size=&quot;3&quot;&gt;Embedding&amp;nbsp;&lt;/font&gt;" style="rounded=0;whiteSpace=wrap;html=1;fontStyle=1" vertex="1" parent="1">
          <mxGeometry x="1139" y="550" width="120" height="40" as="geometry" />
        </mxCell>
        <mxCell id="4-7ApPX3nYWWJ4g4WrPT-47" value="&lt;h3&gt;Cộng &amp;amp; chuẩn hoá&amp;nbsp;&lt;/h3&gt;" style="rounded=0;whiteSpace=wrap;html=1;" vertex="1" parent="1">
          <mxGeometry x="1129" y="-210" width="140" height="50" as="geometry" />
        </mxCell>
        <mxCell id="4-7ApPX3nYWWJ4g4WrPT-48" value="" style="edgeStyle=orthogonalEdgeStyle;rounded=0;orthogonalLoop=1;jettySize=auto;html=1;" edge="1" parent="1" source="4-7ApPX3nYWWJ4g4WrPT-49" target="4-7ApPX3nYWWJ4g4WrPT-44">
          <mxGeometry relative="1" as="geometry" />
        </mxCell>
        <mxCell id="4-7ApPX3nYWWJ4g4WrPT-49" value="&lt;h1&gt;+&lt;/h1&gt;" style="ellipse;whiteSpace=wrap;html=1;aspect=fixed;fillColor=#33FFFF;fontColor=#121111;" vertex="1" parent="1">
          <mxGeometry x="1179" y="470" width="40" height="40" as="geometry" />
        </mxCell>
        <mxCell id="4-7ApPX3nYWWJ4g4WrPT-50" value="" style="endArrow=classic;html=1;rounded=0;entryX=0.25;entryY=1;entryDx=0;entryDy=0;" edge="1" parent="1">
          <mxGeometry width="50" height="50" relative="1" as="geometry">
            <mxPoint x="1204" y="440" as="sourcePoint" />
            <mxPoint x="1168" y="410" as="targetPoint" />
            <Array as="points">
              <mxPoint x="1168" y="440" />
            </Array>
          </mxGeometry>
        </mxCell>
        <mxCell id="4-7ApPX3nYWWJ4g4WrPT-51" value="" style="endArrow=classic;html=1;rounded=0;entryX=0.75;entryY=1;entryDx=0;entryDy=0;" edge="1" parent="1" target="4-7ApPX3nYWWJ4g4WrPT-44">
          <mxGeometry width="50" height="50" relative="1" as="geometry">
            <mxPoint x="1200" y="440" as="sourcePoint" />
            <mxPoint x="1180" y="340" as="targetPoint" />
            <Array as="points">
              <mxPoint x="1234" y="440" />
            </Array>
          </mxGeometry>
        </mxCell>
        <mxCell id="4-7ApPX3nYWWJ4g4WrPT-52" value="" style="endArrow=classic;html=1;rounded=0;entryX=0;entryY=0.5;entryDx=0;entryDy=0;edgeStyle=orthogonalEdgeStyle;curved=1;" edge="1" parent="1">
          <mxGeometry width="50" height="50" relative="1" as="geometry">
            <mxPoint x="1170" y="440" as="sourcePoint" />
            <mxPoint x="1129" y="256" as="targetPoint" />
            <Array as="points">
              <mxPoint x="1100" y="440" />
              <mxPoint x="1100" y="256" />
            </Array>
          </mxGeometry>
        </mxCell>
        <mxCell id="4-7ApPX3nYWWJ4g4WrPT-53" value="" style="endArrow=classic;html=1;rounded=0;entryX=0;entryY=0.5;entryDx=0;entryDy=0;" edge="1" parent="1" target="4-7ApPX3nYWWJ4g4WrPT-47">
          <mxGeometry width="50" height="50" relative="1" as="geometry">
            <mxPoint x="1200" y="-15" as="sourcePoint" />
            <mxPoint x="1129" y="-180" as="targetPoint" />
            <Array as="points">
              <mxPoint x="1080" y="-15" />
              <mxPoint x="1080" y="-185" />
            </Array>
          </mxGeometry>
        </mxCell>
        <mxCell id="4-7ApPX3nYWWJ4g4WrPT-75" value="" style="edgeStyle=orthogonalEdgeStyle;rounded=0;orthogonalLoop=1;jettySize=auto;html=1;" edge="1" parent="1" source="4-7ApPX3nYWWJ4g4WrPT-72" target="4-7ApPX3nYWWJ4g4WrPT-40">
          <mxGeometry relative="1" as="geometry" />
        </mxCell>
        <mxCell id="4-7ApPX3nYWWJ4g4WrPT-72" value="&lt;h3&gt;Cộng &amp;amp; chuẩn hoá&amp;nbsp;&lt;/h3&gt;" style="rounded=0;whiteSpace=wrap;html=1;" vertex="1" parent="1">
          <mxGeometry x="1129" y="20" width="140" height="50" as="geometry" />
        </mxCell>
        <mxCell id="4-7ApPX3nYWWJ4g4WrPT-76" value="" style="endArrow=classic;html=1;rounded=0;entryX=1;entryY=0.5;entryDx=0;entryDy=0;" edge="1" parent="1" target="4-7ApPX3nYWWJ4g4WrPT-72">
          <mxGeometry width="50" height="50" relative="1" as="geometry">
            <mxPoint x="1200" y="210" as="sourcePoint" />
            <mxPoint x="1291" y="140" as="targetPoint" />
            <Array as="points">
              <mxPoint x="1290" y="210" />
              <mxPoint x="1290" y="45" />
            </Array>
          </mxGeometry>
        </mxCell>
        <mxCell id="4-7ApPX3nYWWJ4g4WrPT-79" value="&lt;h4&gt;Trạng Thái&lt;/h4&gt;" style="text;html=1;strokeColor=none;fillColor=none;align=center;verticalAlign=middle;whiteSpace=wrap;rounded=0;" vertex="1" parent="1">
          <mxGeometry x="880" y="-70" width="151" height="30" as="geometry" />
        </mxCell>
        <mxCell id="4-7ApPX3nYWWJ4g4WrPT-83" value="n&amp;nbsp; x" style="text;html=1;strokeColor=none;fillColor=none;align=center;verticalAlign=middle;whiteSpace=wrap;rounded=0;fontSize=14;" vertex="1" parent="1">
          <mxGeometry x="700" y="100" width="60" height="30" as="geometry" />
        </mxCell>
        <mxCell id="4-7ApPX3nYWWJ4g4WrPT-85" value="x&amp;nbsp; n" style="text;html=1;strokeColor=none;fillColor=none;align=center;verticalAlign=middle;whiteSpace=wrap;rounded=0;fontSize=14;" vertex="1" parent="1">
          <mxGeometry x="1325" y="100" width="60" height="30" as="geometry" />
        </mxCell>
        <mxCell id="4-7ApPX3nYWWJ4g4WrPT-86" value="&lt;h1&gt;Transformer&lt;/h1&gt;" style="text;html=1;strokeColor=none;fillColor=none;align=center;verticalAlign=middle;whiteSpace=wrap;rounded=0;" vertex="1" parent="1">
          <mxGeometry x="899" y="-170" width="60" height="30" as="geometry" />
        </mxCell>
        <mxCell id="4-7ApPX3nYWWJ4g4WrPT-102" value="" style="edgeStyle=orthogonalEdgeStyle;rounded=0;orthogonalLoop=1;jettySize=auto;html=1;" edge="1" parent="1" source="4-7ApPX3nYWWJ4g4WrPT-92" target="4-7ApPX3nYWWJ4g4WrPT-93">
          <mxGeometry relative="1" as="geometry">
            <Array as="points">
              <mxPoint x="180" y="1050" />
              <mxPoint x="180" y="1050" />
            </Array>
          </mxGeometry>
        </mxCell>
        <mxCell id="4-7ApPX3nYWWJ4g4WrPT-110" style="edgeStyle=orthogonalEdgeStyle;rounded=0;orthogonalLoop=1;jettySize=auto;html=1;exitX=0.5;exitY=0;exitDx=0;exitDy=0;entryX=0.065;entryY=1.017;entryDx=0;entryDy=0;entryPerimeter=0;" edge="1" parent="1" source="4-7ApPX3nYWWJ4g4WrPT-92" target="4-7ApPX3nYWWJ4g4WrPT-93">
          <mxGeometry relative="1" as="geometry" />
        </mxCell>
        <mxCell id="4-7ApPX3nYWWJ4g4WrPT-111" style="edgeStyle=orthogonalEdgeStyle;rounded=0;orthogonalLoop=1;jettySize=auto;html=1;exitX=0.5;exitY=0;exitDx=0;exitDy=0;entryX=0.21;entryY=0.985;entryDx=0;entryDy=0;entryPerimeter=0;" edge="1" parent="1" source="4-7ApPX3nYWWJ4g4WrPT-92" target="4-7ApPX3nYWWJ4g4WrPT-93">
          <mxGeometry relative="1" as="geometry" />
        </mxCell>
        <mxCell id="4-7ApPX3nYWWJ4g4WrPT-92" value="&lt;h3&gt;t - 1&lt;/h3&gt;" style="rounded=0;whiteSpace=wrap;html=1;" vertex="1" parent="1">
          <mxGeometry x="120" y="1130" width="120" height="60" as="geometry" />
        </mxCell>
        <mxCell id="4-7ApPX3nYWWJ4g4WrPT-125" style="edgeStyle=orthogonalEdgeStyle;rounded=0;orthogonalLoop=1;jettySize=auto;html=1;exitX=0.25;exitY=0;exitDx=0;exitDy=0;entryX=0.5;entryY=1;entryDx=0;entryDy=0;" edge="1" parent="1" source="4-7ApPX3nYWWJ4g4WrPT-93" target="4-7ApPX3nYWWJ4g4WrPT-97">
          <mxGeometry relative="1" as="geometry">
            <Array as="points">
              <mxPoint x="180" y="990" />
            </Array>
          </mxGeometry>
        </mxCell>
        <mxCell id="4-7ApPX3nYWWJ4g4WrPT-126" style="edgeStyle=orthogonalEdgeStyle;rounded=0;orthogonalLoop=1;jettySize=auto;html=1;exitX=0.5;exitY=0;exitDx=0;exitDy=0;entryX=0.5;entryY=1;entryDx=0;entryDy=0;" edge="1" parent="1" source="4-7ApPX3nYWWJ4g4WrPT-93" target="4-7ApPX3nYWWJ4g4WrPT-98">
          <mxGeometry relative="1" as="geometry" />
        </mxCell>
        <mxCell id="4-7ApPX3nYWWJ4g4WrPT-127" style="edgeStyle=orthogonalEdgeStyle;rounded=0;orthogonalLoop=1;jettySize=auto;html=1;exitX=0.75;exitY=0;exitDx=0;exitDy=0;entryX=0.5;entryY=1;entryDx=0;entryDy=0;" edge="1" parent="1">
          <mxGeometry relative="1" as="geometry">
            <mxPoint x="450" y="990" as="sourcePoint" />
            <mxPoint x="500" y="920" as="targetPoint" />
          </mxGeometry>
        </mxCell>
        <mxCell id="4-7ApPX3nYWWJ4g4WrPT-93" value="&lt;h2&gt;Tự Tập Trung&lt;/h2&gt;" style="rounded=0;whiteSpace=wrap;html=1;fillColor=#99CCFF;" vertex="1" parent="1">
          <mxGeometry x="120" y="990" width="440" height="60" as="geometry" />
        </mxCell>
        <mxCell id="4-7ApPX3nYWWJ4g4WrPT-105" value="" style="edgeStyle=orthogonalEdgeStyle;rounded=0;orthogonalLoop=1;jettySize=auto;html=1;" edge="1" parent="1" source="4-7ApPX3nYWWJ4g4WrPT-94" target="4-7ApPX3nYWWJ4g4WrPT-93">
          <mxGeometry relative="1" as="geometry">
            <Array as="points">
              <mxPoint x="500" y="1060" />
              <mxPoint x="500" y="1060" />
            </Array>
          </mxGeometry>
        </mxCell>
        <mxCell id="4-7ApPX3nYWWJ4g4WrPT-106" style="edgeStyle=orthogonalEdgeStyle;rounded=0;orthogonalLoop=1;jettySize=auto;html=1;exitX=0.25;exitY=0;exitDx=0;exitDy=0;" edge="1" parent="1">
          <mxGeometry relative="1" as="geometry">
            <mxPoint x="470" y="1130" as="sourcePoint" />
            <mxPoint x="470" y="1051" as="targetPoint" />
            <Array as="points">
              <mxPoint x="500" y="1130" />
              <mxPoint x="500" y="1090" />
              <mxPoint x="470" y="1090" />
            </Array>
          </mxGeometry>
        </mxCell>
        <mxCell id="4-7ApPX3nYWWJ4g4WrPT-107" style="edgeStyle=orthogonalEdgeStyle;rounded=0;orthogonalLoop=1;jettySize=auto;html=1;exitX=0.75;exitY=0;exitDx=0;exitDy=0;entryX=0.936;entryY=0.985;entryDx=0;entryDy=0;entryPerimeter=0;" edge="1" parent="1" source="4-7ApPX3nYWWJ4g4WrPT-94" target="4-7ApPX3nYWWJ4g4WrPT-93">
          <mxGeometry relative="1" as="geometry">
            <Array as="points">
              <mxPoint x="500" y="1130" />
              <mxPoint x="500" y="1090" />
              <mxPoint x="532" y="1090" />
            </Array>
          </mxGeometry>
        </mxCell>
        <mxCell id="4-7ApPX3nYWWJ4g4WrPT-94" value="&lt;h3&gt;t + 1&lt;/h3&gt;" style="rounded=0;whiteSpace=wrap;html=1;" vertex="1" parent="1">
          <mxGeometry x="440" y="1130" width="120" height="60" as="geometry" />
        </mxCell>
        <mxCell id="4-7ApPX3nYWWJ4g4WrPT-103" value="" style="edgeStyle=orthogonalEdgeStyle;rounded=0;orthogonalLoop=1;jettySize=auto;html=1;" edge="1" parent="1" source="4-7ApPX3nYWWJ4g4WrPT-95" target="4-7ApPX3nYWWJ4g4WrPT-93">
          <mxGeometry relative="1" as="geometry" />
        </mxCell>
        <mxCell id="4-7ApPX3nYWWJ4g4WrPT-108" style="edgeStyle=orthogonalEdgeStyle;rounded=0;orthogonalLoop=1;jettySize=auto;html=1;exitX=0.5;exitY=0;exitDx=0;exitDy=0;entryX=0.588;entryY=1.004;entryDx=0;entryDy=0;entryPerimeter=0;" edge="1" parent="1" source="4-7ApPX3nYWWJ4g4WrPT-95" target="4-7ApPX3nYWWJ4g4WrPT-93">
          <mxGeometry relative="1" as="geometry" />
        </mxCell>
        <mxCell id="4-7ApPX3nYWWJ4g4WrPT-109" style="edgeStyle=orthogonalEdgeStyle;rounded=0;orthogonalLoop=1;jettySize=auto;html=1;exitX=0.5;exitY=0;exitDx=0;exitDy=0;entryX=0.424;entryY=1.004;entryDx=0;entryDy=0;entryPerimeter=0;" edge="1" parent="1" source="4-7ApPX3nYWWJ4g4WrPT-95" target="4-7ApPX3nYWWJ4g4WrPT-93">
          <mxGeometry relative="1" as="geometry" />
        </mxCell>
        <mxCell id="4-7ApPX3nYWWJ4g4WrPT-95" value="&lt;h3&gt;t&lt;/h3&gt;" style="rounded=0;whiteSpace=wrap;html=1;" vertex="1" parent="1">
          <mxGeometry x="280" y="1130" width="120" height="60" as="geometry" />
        </mxCell>
        <mxCell id="4-7ApPX3nYWWJ4g4WrPT-97" value="&lt;h3&gt;&lt;br&gt;&lt;/h3&gt;" style="rounded=0;whiteSpace=wrap;html=1;" vertex="1" parent="1">
          <mxGeometry x="120" y="860" width="120" height="60" as="geometry" />
        </mxCell>
        <mxCell id="4-7ApPX3nYWWJ4g4WrPT-98" value="&lt;h3&gt;&lt;br&gt;&lt;/h3&gt;" style="rounded=0;whiteSpace=wrap;html=1;" vertex="1" parent="1">
          <mxGeometry x="280" y="860" width="120" height="60" as="geometry" />
        </mxCell>
        <mxCell id="4-7ApPX3nYWWJ4g4WrPT-99" value="&lt;h3&gt;&lt;br&gt;&lt;/h3&gt;" style="rounded=0;whiteSpace=wrap;html=1;" vertex="1" parent="1">
          <mxGeometry x="440" y="860" width="120" height="60" as="geometry" />
        </mxCell>
        <mxCell id="4-7ApPX3nYWWJ4g4WrPT-100" value="&lt;h3&gt;Đầu ra&amp;nbsp;&lt;/h3&gt;" style="text;html=1;strokeColor=none;fillColor=none;align=center;verticalAlign=middle;whiteSpace=wrap;rounded=0;" vertex="1" parent="1">
          <mxGeometry x="10" y="875" width="60" height="30" as="geometry" />
        </mxCell>
        <mxCell id="4-7ApPX3nYWWJ4g4WrPT-101" value="&lt;h3&gt;Đầu vào&lt;/h3&gt;" style="text;html=1;strokeColor=none;fillColor=none;align=center;verticalAlign=middle;whiteSpace=wrap;rounded=0;" vertex="1" parent="1">
          <mxGeometry x="15" y="1145" width="60" height="30" as="geometry" />
        </mxCell>
        <mxCell id="4-7ApPX3nYWWJ4g4WrPT-112" value="&lt;h5 style=&quot;font-size: 6px;&quot;&gt;Truy vấn&lt;/h5&gt;" style="text;html=1;strokeColor=none;fillColor=none;align=center;verticalAlign=middle;whiteSpace=wrap;rounded=0;rotation=-90;fontSize=6;" vertex="1" parent="1">
          <mxGeometry x="125" y="1064" width="30" height="20" as="geometry" />
        </mxCell>
        <mxCell id="4-7ApPX3nYWWJ4g4WrPT-115" value="&lt;h6 style=&quot;font-size: 6px;&quot;&gt;Từ khoá&amp;nbsp;&lt;/h6&gt;" style="text;html=1;strokeColor=none;fillColor=none;align=center;verticalAlign=middle;whiteSpace=wrap;rounded=0;rotation=-90;fontSize=6;" vertex="1" parent="1">
          <mxGeometry x="152" y="1063" width="40" height="20" as="geometry" />
        </mxCell>
        <mxCell id="4-7ApPX3nYWWJ4g4WrPT-116" value="&lt;h6 style=&quot;font-size: 6px;&quot;&gt;Từ khoá&amp;nbsp;&lt;/h6&gt;" style="text;html=1;strokeColor=none;fillColor=none;align=center;verticalAlign=middle;whiteSpace=wrap;rounded=0;rotation=-90;fontSize=6;" vertex="1" parent="1">
          <mxGeometry x="312" y="1064" width="40" height="20" as="geometry" />
        </mxCell>
        <mxCell id="4-7ApPX3nYWWJ4g4WrPT-117" value="&lt;h6 style=&quot;font-size: 6px;&quot;&gt;Từ khoá&amp;nbsp;&lt;/h6&gt;" style="text;html=1;strokeColor=none;fillColor=none;align=center;verticalAlign=middle;whiteSpace=wrap;rounded=0;rotation=-90;fontSize=6;" vertex="1" parent="1">
          <mxGeometry x="475" y="1064" width="40" height="20" as="geometry" />
        </mxCell>
        <mxCell id="4-7ApPX3nYWWJ4g4WrPT-118" value="&lt;h5 style=&quot;font-size: 6px;&quot;&gt;Truy vấn&lt;/h5&gt;" style="text;html=1;strokeColor=none;fillColor=none;align=center;verticalAlign=middle;whiteSpace=wrap;rounded=0;rotation=-90;fontSize=6;" vertex="1" parent="1">
          <mxGeometry x="125" y="1064" width="30" height="20" as="geometry" />
        </mxCell>
        <mxCell id="4-7ApPX3nYWWJ4g4WrPT-119" value="&lt;h5 style=&quot;font-size: 6px;&quot;&gt;Giá&amp;nbsp; trị&amp;nbsp;&lt;/h5&gt;" style="text;html=1;strokeColor=none;fillColor=none;align=center;verticalAlign=middle;whiteSpace=wrap;rounded=0;rotation=-90;fontSize=6;" vertex="1" parent="1">
          <mxGeometry x="191" y="1065" width="30" height="20" as="geometry" />
        </mxCell>
        <mxCell id="4-7ApPX3nYWWJ4g4WrPT-120" value="&lt;h5 style=&quot;font-size: 6px;&quot;&gt;Giá&amp;nbsp; trị&amp;nbsp;&lt;/h5&gt;" style="text;html=1;strokeColor=none;fillColor=none;align=center;verticalAlign=middle;whiteSpace=wrap;rounded=0;rotation=-90;fontSize=6;" vertex="1" parent="1">
          <mxGeometry x="358" y="1065" width="30" height="20" as="geometry" />
        </mxCell>
        <mxCell id="4-7ApPX3nYWWJ4g4WrPT-121" value="&lt;h5 style=&quot;font-size: 6px;&quot;&gt;Truy vấn&lt;/h5&gt;" style="text;html=1;strokeColor=none;fillColor=none;align=center;verticalAlign=middle;whiteSpace=wrap;rounded=0;rotation=-90;fontSize=6;" vertex="1" parent="1">
          <mxGeometry x="285" y="1065" width="30" height="20" as="geometry" />
        </mxCell>
        <mxCell id="4-7ApPX3nYWWJ4g4WrPT-122" value="&lt;h5 style=&quot;font-size: 6px;&quot;&gt;Giá&amp;nbsp; trị&amp;nbsp;&lt;/h5&gt;" style="text;html=1;strokeColor=none;fillColor=none;align=center;verticalAlign=middle;whiteSpace=wrap;rounded=0;rotation=-90;fontSize=6;" vertex="1" parent="1">
          <mxGeometry x="510" y="1065" width="30" height="20" as="geometry" />
        </mxCell>
        <mxCell id="4-7ApPX3nYWWJ4g4WrPT-124" value="&lt;h5 style=&quot;font-size: 6px;&quot;&gt;Truy vấn&lt;/h5&gt;" style="text;html=1;strokeColor=none;fillColor=none;align=center;verticalAlign=middle;whiteSpace=wrap;rounded=0;rotation=-90;fontSize=6;" vertex="1" parent="1">
          <mxGeometry x="448" y="1066" width="30" height="20" as="geometry" />
        </mxCell>
        <mxCell id="4-7ApPX3nYWWJ4g4WrPT-128" value="&lt;h1&gt;Kiến trúc tự tập trung&lt;/h1&gt;" style="text;html=1;strokeColor=none;fillColor=none;align=center;verticalAlign=middle;whiteSpace=wrap;rounded=0;" vertex="1" parent="1">
          <mxGeometry x="70" y="790" width="535" height="30" as="geometry" />
        </mxCell>
        <mxCell id="4-7ApPX3nYWWJ4g4WrPT-129" value="Ma Trận Chuỗi Vào&amp;nbsp;&lt;br style=&quot;font-size: 15px;&quot;&gt;( X )" style="rounded=0;whiteSpace=wrap;html=1;fillColor=#99CCFF;fontStyle=1;fontSize=15;" vertex="1" parent="1">
          <mxGeometry x="920" y="890" width="410" height="210" as="geometry" />
        </mxCell>
        <mxCell id="4-7ApPX3nYWWJ4g4WrPT-130" value="" style="endArrow=classic;startArrow=classic;html=1;rounded=0;" edge="1" parent="1">
          <mxGeometry width="50" height="50" relative="1" as="geometry">
            <mxPoint x="920" y="860" as="sourcePoint" />
            <mxPoint x="1330" y="860" as="targetPoint" />
          </mxGeometry>
        </mxCell>
        <mxCell id="4-7ApPX3nYWWJ4g4WrPT-131" value="" style="endArrow=classic;startArrow=classic;html=1;rounded=0;" edge="1" parent="1">
          <mxGeometry width="50" height="50" relative="1" as="geometry">
            <mxPoint x="900" y="1100" as="sourcePoint" />
            <mxPoint x="900" y="890" as="targetPoint" />
          </mxGeometry>
        </mxCell>
        <mxCell id="4-7ApPX3nYWWJ4g4WrPT-132" value="Độ dài chuỗi" style="text;html=1;strokeColor=none;fillColor=none;align=center;verticalAlign=middle;whiteSpace=wrap;rounded=0;rotation=-90;" vertex="1" parent="1">
          <mxGeometry x="830" y="990" width="120" height="30" as="geometry" />
        </mxCell>
        <mxCell id="4-7ApPX3nYWWJ4g4WrPT-133" value="Kích thước Embedding" style="text;html=1;strokeColor=none;fillColor=none;align=center;verticalAlign=middle;whiteSpace=wrap;rounded=0;" vertex="1" parent="1">
          <mxGeometry x="1020" y="833" width="170" height="30" as="geometry" />
        </mxCell>
        <mxCell id="4-7ApPX3nYWWJ4g4WrPT-134" value="&lt;b style=&quot;font-size: 15px;&quot;&gt;Ma Trận Mã Hoá Vị Trí&amp;nbsp;&lt;br&gt;( P )&lt;/b&gt;" style="rounded=0;whiteSpace=wrap;html=1;fillColor=#99CCFF;" vertex="1" parent="1">
          <mxGeometry x="1440" y="890" width="410" height="210" as="geometry" />
        </mxCell>
        <mxCell id="4-7ApPX3nYWWJ4g4WrPT-135" value="" style="endArrow=classic;startArrow=classic;html=1;rounded=0;" edge="1" parent="1">
          <mxGeometry width="50" height="50" relative="1" as="geometry">
            <mxPoint x="1440" y="860" as="sourcePoint" />
            <mxPoint x="1850" y="860" as="targetPoint" />
          </mxGeometry>
        </mxCell>
        <mxCell id="4-7ApPX3nYWWJ4g4WrPT-136" value="" style="endArrow=classic;startArrow=classic;html=1;rounded=0;" edge="1" parent="1">
          <mxGeometry width="50" height="50" relative="1" as="geometry">
            <mxPoint x="1420" y="1100" as="sourcePoint" />
            <mxPoint x="1420" y="890" as="targetPoint" />
          </mxGeometry>
        </mxCell>
        <mxCell id="4-7ApPX3nYWWJ4g4WrPT-137" value="i" style="text;html=1;strokeColor=none;fillColor=none;align=center;verticalAlign=middle;whiteSpace=wrap;rounded=0;rotation=-90;" vertex="1" parent="1">
          <mxGeometry x="1350" y="990" width="120" height="30" as="geometry" />
        </mxCell>
        <mxCell id="4-7ApPX3nYWWJ4g4WrPT-138" value="j" style="text;html=1;strokeColor=none;fillColor=none;align=center;verticalAlign=middle;whiteSpace=wrap;rounded=0;" vertex="1" parent="1">
          <mxGeometry x="1540" y="833" width="170" height="30" as="geometry" />
        </mxCell>
        <mxCell id="4-7ApPX3nYWWJ4g4WrPT-139" value="&lt;h1&gt;Biểu diễn vị trí&lt;/h1&gt;" style="text;html=1;strokeColor=none;fillColor=none;align=center;verticalAlign=middle;whiteSpace=wrap;rounded=0;" vertex="1" parent="1">
          <mxGeometry x="1110" y="780" width="535" height="30" as="geometry" />
        </mxCell>
        <mxCell id="4-7ApPX3nYWWJ4g4WrPT-140" value="" style="edgeStyle=orthogonalEdgeStyle;rounded=0;orthogonalLoop=1;jettySize=auto;html=1;" edge="1" parent="1" source="4-7ApPX3nYWWJ4g4WrPT-143" target="4-7ApPX3nYWWJ4g4WrPT-147">
          <mxGeometry relative="1" as="geometry">
            <Array as="points">
              <mxPoint x="204.5" y="1630" />
              <mxPoint x="204.5" y="1630" />
            </Array>
          </mxGeometry>
        </mxCell>
        <mxCell id="4-7ApPX3nYWWJ4g4WrPT-142" style="edgeStyle=orthogonalEdgeStyle;rounded=0;orthogonalLoop=1;jettySize=auto;html=1;exitX=0.5;exitY=0;exitDx=0;exitDy=0;entryX=0.21;entryY=0.985;entryDx=0;entryDy=0;entryPerimeter=0;" edge="1" parent="1" source="4-7ApPX3nYWWJ4g4WrPT-143" target="4-7ApPX3nYWWJ4g4WrPT-147">
          <mxGeometry relative="1" as="geometry" />
        </mxCell>
        <mxCell id="4-7ApPX3nYWWJ4g4WrPT-143" value="&lt;h3&gt;1&lt;/h3&gt;" style="rounded=0;whiteSpace=wrap;html=1;" vertex="1" parent="1">
          <mxGeometry x="144.5" y="1710" width="120" height="60" as="geometry" />
        </mxCell>
        <mxCell id="4-7ApPX3nYWWJ4g4WrPT-175" style="edgeStyle=orthogonalEdgeStyle;rounded=0;orthogonalLoop=1;jettySize=auto;html=1;exitX=0.75;exitY=0;exitDx=0;exitDy=0;entryX=0.5;entryY=1;entryDx=0;entryDy=0;" edge="1" parent="1" source="4-7ApPX3nYWWJ4g4WrPT-147" target="4-7ApPX3nYWWJ4g4WrPT-174">
          <mxGeometry relative="1" as="geometry">
            <Array as="points">
              <mxPoint x="530" y="1570" />
            </Array>
          </mxGeometry>
        </mxCell>
        <mxCell id="4-7ApPX3nYWWJ4g4WrPT-147" value="&lt;h2&gt;Tự Tập Trung&lt;/h2&gt;" style="rounded=0;whiteSpace=wrap;html=1;fillColor=#99CCFF;" vertex="1" parent="1">
          <mxGeometry x="144.5" y="1570" width="440" height="60" as="geometry" />
        </mxCell>
        <mxCell id="4-7ApPX3nYWWJ4g4WrPT-148" value="" style="edgeStyle=orthogonalEdgeStyle;rounded=0;orthogonalLoop=1;jettySize=auto;html=1;" edge="1" parent="1" source="4-7ApPX3nYWWJ4g4WrPT-151" target="4-7ApPX3nYWWJ4g4WrPT-147">
          <mxGeometry relative="1" as="geometry">
            <Array as="points">
              <mxPoint x="524.5" y="1640" />
              <mxPoint x="524.5" y="1640" />
            </Array>
          </mxGeometry>
        </mxCell>
        <mxCell id="4-7ApPX3nYWWJ4g4WrPT-149" style="edgeStyle=orthogonalEdgeStyle;rounded=0;orthogonalLoop=1;jettySize=auto;html=1;exitX=0.25;exitY=0;exitDx=0;exitDy=0;" edge="1" parent="1">
          <mxGeometry relative="1" as="geometry">
            <mxPoint x="494.5" y="1710" as="sourcePoint" />
            <mxPoint x="494.5" y="1631" as="targetPoint" />
            <Array as="points">
              <mxPoint x="524.5" y="1710" />
              <mxPoint x="524.5" y="1670" />
              <mxPoint x="494.5" y="1670" />
            </Array>
          </mxGeometry>
        </mxCell>
        <mxCell id="4-7ApPX3nYWWJ4g4WrPT-150" style="edgeStyle=orthogonalEdgeStyle;rounded=0;orthogonalLoop=1;jettySize=auto;html=1;exitX=0.75;exitY=0;exitDx=0;exitDy=0;entryX=0.936;entryY=0.985;entryDx=0;entryDy=0;entryPerimeter=0;" edge="1" parent="1" source="4-7ApPX3nYWWJ4g4WrPT-151" target="4-7ApPX3nYWWJ4g4WrPT-147">
          <mxGeometry relative="1" as="geometry">
            <Array as="points">
              <mxPoint x="524.5" y="1710" />
              <mxPoint x="524.5" y="1670" />
              <mxPoint x="556.5" y="1670" />
            </Array>
          </mxGeometry>
        </mxCell>
        <mxCell id="4-7ApPX3nYWWJ4g4WrPT-151" value="&lt;h3&gt;t&lt;/h3&gt;" style="rounded=0;whiteSpace=wrap;html=1;fillColor=#007FFF;" vertex="1" parent="1">
          <mxGeometry x="464.5" y="1710" width="120" height="60" as="geometry" />
        </mxCell>
        <mxCell id="4-7ApPX3nYWWJ4g4WrPT-152" value="" style="edgeStyle=orthogonalEdgeStyle;rounded=0;orthogonalLoop=1;jettySize=auto;html=1;" edge="1" parent="1" source="4-7ApPX3nYWWJ4g4WrPT-155" target="4-7ApPX3nYWWJ4g4WrPT-147">
          <mxGeometry relative="1" as="geometry" />
        </mxCell>
        <mxCell id="4-7ApPX3nYWWJ4g4WrPT-153" style="edgeStyle=orthogonalEdgeStyle;rounded=0;orthogonalLoop=1;jettySize=auto;html=1;exitX=0.5;exitY=0;exitDx=0;exitDy=0;entryX=0.588;entryY=1.004;entryDx=0;entryDy=0;entryPerimeter=0;" edge="1" parent="1" source="4-7ApPX3nYWWJ4g4WrPT-155" target="4-7ApPX3nYWWJ4g4WrPT-147">
          <mxGeometry relative="1" as="geometry" />
        </mxCell>
        <mxCell id="4-7ApPX3nYWWJ4g4WrPT-155" value="&lt;h3&gt;t - 1&lt;/h3&gt;" style="rounded=0;whiteSpace=wrap;html=1;" vertex="1" parent="1">
          <mxGeometry x="304.5" y="1710" width="120" height="60" as="geometry" />
        </mxCell>
        <mxCell id="4-7ApPX3nYWWJ4g4WrPT-160" value="&lt;h3&gt;Đầu ra&lt;/h3&gt;" style="text;html=1;strokeColor=none;fillColor=none;align=center;verticalAlign=middle;whiteSpace=wrap;rounded=0;" vertex="1" parent="1">
          <mxGeometry x="424.5" y="1490" width="60" height="30" as="geometry" />
        </mxCell>
        <mxCell id="4-7ApPX3nYWWJ4g4WrPT-162" value="&lt;h6 style=&quot;font-size: 6px;&quot;&gt;Từ khoá&amp;nbsp;&lt;/h6&gt;" style="text;html=1;strokeColor=none;fillColor=none;align=center;verticalAlign=middle;whiteSpace=wrap;rounded=0;rotation=-90;fontSize=6;" vertex="1" parent="1">
          <mxGeometry x="176.5" y="1643" width="40" height="20" as="geometry" />
        </mxCell>
        <mxCell id="4-7ApPX3nYWWJ4g4WrPT-163" value="&lt;h6 style=&quot;font-size: 6px;&quot;&gt;Từ khoá&amp;nbsp;&lt;/h6&gt;" style="text;html=1;strokeColor=none;fillColor=none;align=center;verticalAlign=middle;whiteSpace=wrap;rounded=0;rotation=-90;fontSize=6;" vertex="1" parent="1">
          <mxGeometry x="336.5" y="1644" width="40" height="20" as="geometry" />
        </mxCell>
        <mxCell id="4-7ApPX3nYWWJ4g4WrPT-164" value="&lt;h6 style=&quot;font-size: 6px;&quot;&gt;&lt;br&gt;&lt;/h6&gt;" style="text;html=1;strokeColor=none;fillColor=none;align=center;verticalAlign=middle;whiteSpace=wrap;rounded=0;rotation=-90;fontSize=6;" vertex="1" parent="1">
          <mxGeometry x="499.5" y="1644" width="40" height="20" as="geometry" />
        </mxCell>
        <mxCell id="4-7ApPX3nYWWJ4g4WrPT-166" value="&lt;h5 style=&quot;font-size: 6px;&quot;&gt;Giá&amp;nbsp; trị&amp;nbsp;&lt;/h5&gt;" style="text;html=1;strokeColor=none;fillColor=none;align=center;verticalAlign=middle;whiteSpace=wrap;rounded=0;rotation=-90;fontSize=6;" vertex="1" parent="1">
          <mxGeometry x="215.5" y="1645" width="30" height="20" as="geometry" />
        </mxCell>
        <mxCell id="4-7ApPX3nYWWJ4g4WrPT-167" value="&lt;h5 style=&quot;font-size: 6px;&quot;&gt;Giá&amp;nbsp; trị&amp;nbsp;&lt;/h5&gt;" style="text;html=1;strokeColor=none;fillColor=none;align=center;verticalAlign=middle;whiteSpace=wrap;rounded=0;rotation=-90;fontSize=6;" vertex="1" parent="1">
          <mxGeometry x="382.5" y="1645" width="30" height="20" as="geometry" />
        </mxCell>
        <mxCell id="4-7ApPX3nYWWJ4g4WrPT-170" value="&lt;h5 style=&quot;font-size: 6px;&quot;&gt;Truy vấn&lt;/h5&gt;" style="text;html=1;strokeColor=none;fillColor=none;align=center;verticalAlign=middle;whiteSpace=wrap;rounded=0;rotation=-90;fontSize=6;" vertex="1" parent="1">
          <mxGeometry x="472.5" y="1646" width="30" height="20" as="geometry" />
        </mxCell>
        <mxCell id="4-7ApPX3nYWWJ4g4WrPT-171" value="Dự đoán ở bước thời gian&amp;nbsp; ������ của một tầng tự tập trung." style="text;html=1;strokeColor=none;fillColor=none;align=center;verticalAlign=middle;whiteSpace=wrap;rounded=0;fontStyle=1;fontSize=21;" vertex="1" parent="1">
          <mxGeometry x="70" y="1419" width="593" height="30" as="geometry" />
        </mxCell>
        <mxCell id="4-7ApPX3nYWWJ4g4WrPT-173" value="&lt;font style=&quot;font-size: 16px;&quot;&gt;. . .&lt;/font&gt;" style="text;html=1;strokeColor=none;fillColor=none;align=center;verticalAlign=middle;whiteSpace=wrap;rounded=0;" vertex="1" parent="1">
          <mxGeometry x="255" y="1725" width="60" height="30" as="geometry" />
        </mxCell>
        <mxCell id="4-7ApPX3nYWWJ4g4WrPT-174" value="" style="rounded=0;whiteSpace=wrap;html=1;fillColor=#007FFF;" vertex="1" parent="1">
          <mxGeometry x="499.5" y="1480" width="60" height="60" as="geometry" />
        </mxCell>
        <mxCell id="4-7ApPX3nYWWJ4g4WrPT-229" value="" style="edgeStyle=orthogonalEdgeStyle;rounded=0;orthogonalLoop=1;jettySize=auto;html=1;" edge="1" parent="1" source="4-7ApPX3nYWWJ4g4WrPT-184" target="4-7ApPX3nYWWJ4g4WrPT-191">
          <mxGeometry relative="1" as="geometry" />
        </mxCell>
        <mxCell id="4-7ApPX3nYWWJ4g4WrPT-184" value="&lt;h3&gt;T&lt;sub&gt;1&lt;/sub&gt;&lt;/h3&gt;" style="rounded=0;whiteSpace=wrap;html=1;fillColor=#F8CECC;" vertex="1" parent="1">
          <mxGeometry x="1200" y="2038" width="120" height="60" as="geometry" />
        </mxCell>
        <mxCell id="4-7ApPX3nYWWJ4g4WrPT-230" value="" style="edgeStyle=orthogonalEdgeStyle;rounded=0;orthogonalLoop=1;jettySize=auto;html=1;" edge="1" parent="1" source="4-7ApPX3nYWWJ4g4WrPT-185" target="4-7ApPX3nYWWJ4g4WrPT-193">
          <mxGeometry relative="1" as="geometry" />
        </mxCell>
        <mxCell id="4-7ApPX3nYWWJ4g4WrPT-185" value="&lt;h3&gt;T&lt;span style=&quot;font-size: 11.7px;&quot;&gt;2&lt;/span&gt;&lt;/h3&gt;" style="rounded=0;whiteSpace=wrap;html=1;fillColor=#F8CECC;" vertex="1" parent="1">
          <mxGeometry x="1440" y="2038" width="120" height="60" as="geometry" />
        </mxCell>
        <mxCell id="4-7ApPX3nYWWJ4g4WrPT-228" value="" style="edgeStyle=orthogonalEdgeStyle;rounded=0;orthogonalLoop=1;jettySize=auto;html=1;" edge="1" parent="1" source="4-7ApPX3nYWWJ4g4WrPT-186" target="4-7ApPX3nYWWJ4g4WrPT-189">
          <mxGeometry relative="1" as="geometry" />
        </mxCell>
        <mxCell id="4-7ApPX3nYWWJ4g4WrPT-186" value="&lt;h3&gt;CLS&lt;/h3&gt;" style="rounded=0;whiteSpace=wrap;html=1;fillColor=#F8CECC;" vertex="1" parent="1">
          <mxGeometry x="959" y="2040" width="120" height="60" as="geometry" />
        </mxCell>
        <mxCell id="4-7ApPX3nYWWJ4g4WrPT-232" value="" style="edgeStyle=orthogonalEdgeStyle;rounded=0;orthogonalLoop=1;jettySize=auto;html=1;" edge="1" parent="1" source="4-7ApPX3nYWWJ4g4WrPT-187" target="4-7ApPX3nYWWJ4g4WrPT-194">
          <mxGeometry relative="1" as="geometry" />
        </mxCell>
        <mxCell id="4-7ApPX3nYWWJ4g4WrPT-187" value="&lt;h3&gt;T&lt;span style=&quot;font-size: 11.7px;&quot;&gt;n&lt;/span&gt;&lt;/h3&gt;" style="rounded=0;whiteSpace=wrap;html=1;fillColor=#F8CECC;" vertex="1" parent="1">
          <mxGeometry x="2000" y="2038" width="120" height="60" as="geometry" />
        </mxCell>
        <mxCell id="4-7ApPX3nYWWJ4g4WrPT-231" value="" style="edgeStyle=orthogonalEdgeStyle;rounded=0;orthogonalLoop=1;jettySize=auto;html=1;" edge="1" parent="1" source="4-7ApPX3nYWWJ4g4WrPT-188" target="4-7ApPX3nYWWJ4g4WrPT-195">
          <mxGeometry relative="1" as="geometry" />
        </mxCell>
        <mxCell id="4-7ApPX3nYWWJ4g4WrPT-188" value="&lt;h3&gt;T&lt;span style=&quot;font-size: 11.7px;&quot;&gt;3&lt;/span&gt;&lt;/h3&gt;" style="rounded=0;whiteSpace=wrap;html=1;fillColor=#F8CECC;" vertex="1" parent="1">
          <mxGeometry x="1680" y="2038" width="120" height="60" as="geometry" />
        </mxCell>
        <mxCell id="4-7ApPX3nYWWJ4g4WrPT-209" value="" style="edgeStyle=orthogonalEdgeStyle;rounded=0;orthogonalLoop=1;jettySize=auto;html=1;" edge="1" parent="1" source="4-7ApPX3nYWWJ4g4WrPT-189" target="4-7ApPX3nYWWJ4g4WrPT-206">
          <mxGeometry relative="1" as="geometry" />
        </mxCell>
        <mxCell id="4-7ApPX3nYWWJ4g4WrPT-233" style="rounded=0;orthogonalLoop=1;jettySize=auto;html=1;exitX=0.5;exitY=0;exitDx=0;exitDy=0;entryX=0.5;entryY=1;entryDx=0;entryDy=0;" edge="1" parent="1" source="4-7ApPX3nYWWJ4g4WrPT-189" target="4-7ApPX3nYWWJ4g4WrPT-207">
          <mxGeometry relative="1" as="geometry" />
        </mxCell>
        <mxCell id="4-7ApPX3nYWWJ4g4WrPT-234" style="rounded=0;orthogonalLoop=1;jettySize=auto;html=1;exitX=0.5;exitY=0;exitDx=0;exitDy=0;entryX=0.5;entryY=1;entryDx=0;entryDy=0;" edge="1" parent="1" source="4-7ApPX3nYWWJ4g4WrPT-189" target="4-7ApPX3nYWWJ4g4WrPT-205">
          <mxGeometry relative="1" as="geometry" />
        </mxCell>
        <mxCell id="4-7ApPX3nYWWJ4g4WrPT-235" style="rounded=0;orthogonalLoop=1;jettySize=auto;html=1;exitX=0.5;exitY=0;exitDx=0;exitDy=0;entryX=0.5;entryY=1;entryDx=0;entryDy=0;" edge="1" parent="1" source="4-7ApPX3nYWWJ4g4WrPT-189" target="4-7ApPX3nYWWJ4g4WrPT-204">
          <mxGeometry relative="1" as="geometry" />
        </mxCell>
        <mxCell id="4-7ApPX3nYWWJ4g4WrPT-236" style="rounded=0;orthogonalLoop=1;jettySize=auto;html=1;exitX=0.5;exitY=0;exitDx=0;exitDy=0;entryX=0.5;entryY=1;entryDx=0;entryDy=0;" edge="1" parent="1" source="4-7ApPX3nYWWJ4g4WrPT-189" target="4-7ApPX3nYWWJ4g4WrPT-202">
          <mxGeometry relative="1" as="geometry" />
        </mxCell>
        <mxCell id="4-7ApPX3nYWWJ4g4WrPT-189" value="&lt;h3&gt;E&lt;sub&gt;CLS&lt;/sub&gt;&lt;/h3&gt;" style="rounded=0;whiteSpace=wrap;html=1;fillColor=#FFE599;" vertex="1" parent="1">
          <mxGeometry x="959" y="1880" width="120" height="60" as="geometry" />
        </mxCell>
        <mxCell id="4-7ApPX3nYWWJ4g4WrPT-208" value="" style="edgeStyle=orthogonalEdgeStyle;rounded=0;orthogonalLoop=1;jettySize=auto;html=1;" edge="1" parent="1" source="4-7ApPX3nYWWJ4g4WrPT-191" target="4-7ApPX3nYWWJ4g4WrPT-207">
          <mxGeometry relative="1" as="geometry" />
        </mxCell>
        <mxCell id="4-7ApPX3nYWWJ4g4WrPT-237" style="rounded=0;orthogonalLoop=1;jettySize=auto;html=1;exitX=0.5;exitY=0;exitDx=0;exitDy=0;entryX=0.5;entryY=1;entryDx=0;entryDy=0;" edge="1" parent="1" source="4-7ApPX3nYWWJ4g4WrPT-191" target="4-7ApPX3nYWWJ4g4WrPT-206">
          <mxGeometry relative="1" as="geometry" />
        </mxCell>
        <mxCell id="4-7ApPX3nYWWJ4g4WrPT-238" style="rounded=0;orthogonalLoop=1;jettySize=auto;html=1;exitX=0.5;exitY=0;exitDx=0;exitDy=0;entryX=0.5;entryY=1;entryDx=0;entryDy=0;" edge="1" parent="1" source="4-7ApPX3nYWWJ4g4WrPT-191" target="4-7ApPX3nYWWJ4g4WrPT-205">
          <mxGeometry relative="1" as="geometry" />
        </mxCell>
        <mxCell id="4-7ApPX3nYWWJ4g4WrPT-239" style="rounded=0;orthogonalLoop=1;jettySize=auto;html=1;exitX=0.5;exitY=0;exitDx=0;exitDy=0;entryX=0.5;entryY=1;entryDx=0;entryDy=0;" edge="1" parent="1" source="4-7ApPX3nYWWJ4g4WrPT-191" target="4-7ApPX3nYWWJ4g4WrPT-204">
          <mxGeometry relative="1" as="geometry" />
        </mxCell>
        <mxCell id="4-7ApPX3nYWWJ4g4WrPT-240" style="rounded=0;orthogonalLoop=1;jettySize=auto;html=1;exitX=0.5;exitY=0;exitDx=0;exitDy=0;entryX=0.5;entryY=1;entryDx=0;entryDy=0;" edge="1" parent="1" source="4-7ApPX3nYWWJ4g4WrPT-191" target="4-7ApPX3nYWWJ4g4WrPT-202">
          <mxGeometry relative="1" as="geometry" />
        </mxCell>
        <mxCell id="4-7ApPX3nYWWJ4g4WrPT-191" value="&lt;h3&gt;E&lt;span style=&quot;font-size: 11.7px;&quot;&gt;1&lt;/span&gt;&lt;/h3&gt;" style="rounded=0;whiteSpace=wrap;html=1;fillColor=#FFE599;" vertex="1" parent="1">
          <mxGeometry x="1200" y="1880" width="120" height="60" as="geometry" />
        </mxCell>
        <mxCell id="4-7ApPX3nYWWJ4g4WrPT-210" value="" style="edgeStyle=orthogonalEdgeStyle;rounded=0;orthogonalLoop=1;jettySize=auto;html=1;" edge="1" parent="1" source="4-7ApPX3nYWWJ4g4WrPT-193" target="4-7ApPX3nYWWJ4g4WrPT-205">
          <mxGeometry relative="1" as="geometry" />
        </mxCell>
        <mxCell id="4-7ApPX3nYWWJ4g4WrPT-241" style="rounded=0;orthogonalLoop=1;jettySize=auto;html=1;exitX=0.5;exitY=0;exitDx=0;exitDy=0;entryX=0.5;entryY=1;entryDx=0;entryDy=0;" edge="1" parent="1" source="4-7ApPX3nYWWJ4g4WrPT-193" target="4-7ApPX3nYWWJ4g4WrPT-206">
          <mxGeometry relative="1" as="geometry" />
        </mxCell>
        <mxCell id="4-7ApPX3nYWWJ4g4WrPT-242" style="rounded=0;orthogonalLoop=1;jettySize=auto;html=1;exitX=0.5;exitY=0;exitDx=0;exitDy=0;entryX=0.5;entryY=1;entryDx=0;entryDy=0;" edge="1" parent="1" source="4-7ApPX3nYWWJ4g4WrPT-193" target="4-7ApPX3nYWWJ4g4WrPT-207">
          <mxGeometry relative="1" as="geometry" />
        </mxCell>
        <mxCell id="4-7ApPX3nYWWJ4g4WrPT-243" style="rounded=0;orthogonalLoop=1;jettySize=auto;html=1;exitX=0.5;exitY=0;exitDx=0;exitDy=0;entryX=0.5;entryY=1;entryDx=0;entryDy=0;" edge="1" parent="1" source="4-7ApPX3nYWWJ4g4WrPT-193" target="4-7ApPX3nYWWJ4g4WrPT-204">
          <mxGeometry relative="1" as="geometry" />
        </mxCell>
        <mxCell id="4-7ApPX3nYWWJ4g4WrPT-244" style="rounded=0;orthogonalLoop=1;jettySize=auto;html=1;exitX=0.5;exitY=0;exitDx=0;exitDy=0;entryX=0.5;entryY=1;entryDx=0;entryDy=0;" edge="1" parent="1" source="4-7ApPX3nYWWJ4g4WrPT-193" target="4-7ApPX3nYWWJ4g4WrPT-202">
          <mxGeometry relative="1" as="geometry" />
        </mxCell>
        <mxCell id="4-7ApPX3nYWWJ4g4WrPT-193" value="&lt;h3&gt;E&lt;span style=&quot;font-size: 11.7px;&quot;&gt;2&lt;/span&gt;&lt;/h3&gt;" style="rounded=0;whiteSpace=wrap;html=1;fillColor=#FFE599;" vertex="1" parent="1">
          <mxGeometry x="1440" y="1880" width="120" height="60" as="geometry" />
        </mxCell>
        <mxCell id="4-7ApPX3nYWWJ4g4WrPT-212" value="" style="edgeStyle=orthogonalEdgeStyle;rounded=0;orthogonalLoop=1;jettySize=auto;html=1;" edge="1" parent="1" source="4-7ApPX3nYWWJ4g4WrPT-194" target="4-7ApPX3nYWWJ4g4WrPT-202">
          <mxGeometry relative="1" as="geometry" />
        </mxCell>
        <mxCell id="4-7ApPX3nYWWJ4g4WrPT-250" style="rounded=0;orthogonalLoop=1;jettySize=auto;html=1;exitX=0.5;exitY=0;exitDx=0;exitDy=0;entryX=0.5;entryY=1;entryDx=0;entryDy=0;" edge="1" parent="1" source="4-7ApPX3nYWWJ4g4WrPT-194" target="4-7ApPX3nYWWJ4g4WrPT-206">
          <mxGeometry relative="1" as="geometry" />
        </mxCell>
        <mxCell id="4-7ApPX3nYWWJ4g4WrPT-251" style="rounded=0;orthogonalLoop=1;jettySize=auto;html=1;exitX=0.5;exitY=0;exitDx=0;exitDy=0;entryX=0.5;entryY=1;entryDx=0;entryDy=0;" edge="1" parent="1" source="4-7ApPX3nYWWJ4g4WrPT-194" target="4-7ApPX3nYWWJ4g4WrPT-207">
          <mxGeometry relative="1" as="geometry" />
        </mxCell>
        <mxCell id="4-7ApPX3nYWWJ4g4WrPT-252" style="rounded=0;orthogonalLoop=1;jettySize=auto;html=1;exitX=0.5;exitY=0;exitDx=0;exitDy=0;entryX=0.5;entryY=1;entryDx=0;entryDy=0;" edge="1" parent="1" source="4-7ApPX3nYWWJ4g4WrPT-194" target="4-7ApPX3nYWWJ4g4WrPT-205">
          <mxGeometry relative="1" as="geometry" />
        </mxCell>
        <mxCell id="4-7ApPX3nYWWJ4g4WrPT-253" style="rounded=0;orthogonalLoop=1;jettySize=auto;html=1;exitX=0.5;exitY=0;exitDx=0;exitDy=0;entryX=0.5;entryY=1;entryDx=0;entryDy=0;" edge="1" parent="1" source="4-7ApPX3nYWWJ4g4WrPT-194" target="4-7ApPX3nYWWJ4g4WrPT-204">
          <mxGeometry relative="1" as="geometry" />
        </mxCell>
        <mxCell id="4-7ApPX3nYWWJ4g4WrPT-194" value="&lt;h3&gt;E&lt;span style=&quot;font-size: 11.7px;&quot;&gt;n&lt;/span&gt;&lt;/h3&gt;" style="rounded=0;whiteSpace=wrap;html=1;fillColor=#FFE599;" vertex="1" parent="1">
          <mxGeometry x="2000" y="1880" width="120" height="60" as="geometry" />
        </mxCell>
        <mxCell id="4-7ApPX3nYWWJ4g4WrPT-211" value="" style="edgeStyle=orthogonalEdgeStyle;rounded=0;orthogonalLoop=1;jettySize=auto;html=1;" edge="1" parent="1" source="4-7ApPX3nYWWJ4g4WrPT-195" target="4-7ApPX3nYWWJ4g4WrPT-204">
          <mxGeometry relative="1" as="geometry" />
        </mxCell>
        <mxCell id="4-7ApPX3nYWWJ4g4WrPT-245" style="rounded=0;orthogonalLoop=1;jettySize=auto;html=1;exitX=0.5;exitY=0;exitDx=0;exitDy=0;entryX=0.5;entryY=1;entryDx=0;entryDy=0;" edge="1" parent="1" source="4-7ApPX3nYWWJ4g4WrPT-195" target="4-7ApPX3nYWWJ4g4WrPT-202">
          <mxGeometry relative="1" as="geometry" />
        </mxCell>
        <mxCell id="4-7ApPX3nYWWJ4g4WrPT-246" style="rounded=0;orthogonalLoop=1;jettySize=auto;html=1;exitX=0.5;exitY=0;exitDx=0;exitDy=0;entryX=0.5;entryY=1;entryDx=0;entryDy=0;" edge="1" parent="1" source="4-7ApPX3nYWWJ4g4WrPT-195" target="4-7ApPX3nYWWJ4g4WrPT-205">
          <mxGeometry relative="1" as="geometry" />
        </mxCell>
        <mxCell id="4-7ApPX3nYWWJ4g4WrPT-247" style="rounded=0;orthogonalLoop=1;jettySize=auto;html=1;exitX=0.5;exitY=0;exitDx=0;exitDy=0;entryX=0.5;entryY=1;entryDx=0;entryDy=0;" edge="1" parent="1" source="4-7ApPX3nYWWJ4g4WrPT-195" target="4-7ApPX3nYWWJ4g4WrPT-207">
          <mxGeometry relative="1" as="geometry" />
        </mxCell>
        <mxCell id="4-7ApPX3nYWWJ4g4WrPT-248" style="rounded=0;orthogonalLoop=1;jettySize=auto;html=1;exitX=0.5;exitY=0;exitDx=0;exitDy=0;entryX=0.5;entryY=1;entryDx=0;entryDy=0;" edge="1" parent="1" source="4-7ApPX3nYWWJ4g4WrPT-195" target="4-7ApPX3nYWWJ4g4WrPT-206">
          <mxGeometry relative="1" as="geometry" />
        </mxCell>
        <mxCell id="4-7ApPX3nYWWJ4g4WrPT-249" style="rounded=0;orthogonalLoop=1;jettySize=auto;html=1;exitX=0.5;exitY=0;exitDx=0;exitDy=0;entryX=0.5;entryY=1;entryDx=0;entryDy=0;" edge="1" parent="1" source="4-7ApPX3nYWWJ4g4WrPT-195" target="4-7ApPX3nYWWJ4g4WrPT-202">
          <mxGeometry relative="1" as="geometry" />
        </mxCell>
        <mxCell id="4-7ApPX3nYWWJ4g4WrPT-195" value="&lt;h3&gt;E&lt;span style=&quot;font-size: 11.7px;&quot;&gt;3&lt;/span&gt;&lt;/h3&gt;" style="rounded=0;whiteSpace=wrap;html=1;fillColor=#FFE599;" vertex="1" parent="1">
          <mxGeometry x="1680" y="1880" width="120" height="60" as="geometry" />
        </mxCell>
        <mxCell id="4-7ApPX3nYWWJ4g4WrPT-197" value="&lt;h3&gt;C&lt;/h3&gt;" style="rounded=0;whiteSpace=wrap;html=1;fillColor=#d5e8d4;strokeColor=#82b366;" vertex="1" parent="1">
          <mxGeometry x="959" y="1404" width="120" height="60" as="geometry" />
        </mxCell>
        <mxCell id="4-7ApPX3nYWWJ4g4WrPT-198" value="&lt;h3&gt;T&lt;sub&gt;1&lt;/sub&gt;&lt;/h3&gt;" style="rounded=0;whiteSpace=wrap;html=1;fillColor=#d5e8d4;strokeColor=#82b366;" vertex="1" parent="1">
          <mxGeometry x="1200" y="1410" width="120" height="60" as="geometry" />
        </mxCell>
        <mxCell id="4-7ApPX3nYWWJ4g4WrPT-199" value="&lt;h3&gt;T&lt;span style=&quot;font-size: 11.7px;&quot;&gt;2&lt;/span&gt;&lt;/h3&gt;" style="rounded=0;whiteSpace=wrap;html=1;fillColor=#d5e8d4;strokeColor=#82b366;" vertex="1" parent="1">
          <mxGeometry x="1440" y="1404" width="120" height="60" as="geometry" />
        </mxCell>
        <mxCell id="4-7ApPX3nYWWJ4g4WrPT-200" value="&lt;h3&gt;T&lt;span style=&quot;font-size: 11.7px;&quot;&gt;3&lt;/span&gt;&lt;/h3&gt;" style="rounded=0;whiteSpace=wrap;html=1;fillColor=#d5e8d4;strokeColor=#82b366;" vertex="1" parent="1">
          <mxGeometry x="1680" y="1404" width="120" height="60" as="geometry" />
        </mxCell>
        <mxCell id="4-7ApPX3nYWWJ4g4WrPT-201" value="&lt;h3&gt;T&lt;span style=&quot;font-size: 11.7px;&quot;&gt;n&lt;/span&gt;&lt;/h3&gt;" style="rounded=0;whiteSpace=wrap;html=1;fillColor=#d5e8d4;strokeColor=#82b366;" vertex="1" parent="1">
          <mxGeometry x="2000" y="1404" width="120" height="60" as="geometry" />
        </mxCell>
        <mxCell id="4-7ApPX3nYWWJ4g4WrPT-222" value="" style="edgeStyle=orthogonalEdgeStyle;rounded=0;orthogonalLoop=1;jettySize=auto;html=1;" edge="1" parent="1" source="4-7ApPX3nYWWJ4g4WrPT-202" target="4-7ApPX3nYWWJ4g4WrPT-213">
          <mxGeometry relative="1" as="geometry" />
        </mxCell>
        <mxCell id="4-7ApPX3nYWWJ4g4WrPT-254" style="rounded=0;orthogonalLoop=1;jettySize=auto;html=1;exitX=0.5;exitY=0;exitDx=0;exitDy=0;entryX=0.5;entryY=1;entryDx=0;entryDy=0;" edge="1" parent="1" source="4-7ApPX3nYWWJ4g4WrPT-202" target="4-7ApPX3nYWWJ4g4WrPT-214">
          <mxGeometry relative="1" as="geometry" />
        </mxCell>
        <mxCell id="4-7ApPX3nYWWJ4g4WrPT-255" style="rounded=0;orthogonalLoop=1;jettySize=auto;html=1;exitX=0.5;exitY=0;exitDx=0;exitDy=0;entryX=0.5;entryY=1;entryDx=0;entryDy=0;" edge="1" parent="1" source="4-7ApPX3nYWWJ4g4WrPT-202" target="4-7ApPX3nYWWJ4g4WrPT-215">
          <mxGeometry relative="1" as="geometry" />
        </mxCell>
        <mxCell id="4-7ApPX3nYWWJ4g4WrPT-256" style="rounded=0;orthogonalLoop=1;jettySize=auto;html=1;exitX=0.5;exitY=0;exitDx=0;exitDy=0;entryX=0.5;entryY=1;entryDx=0;entryDy=0;" edge="1" parent="1" source="4-7ApPX3nYWWJ4g4WrPT-202" target="4-7ApPX3nYWWJ4g4WrPT-217">
          <mxGeometry relative="1" as="geometry" />
        </mxCell>
        <mxCell id="4-7ApPX3nYWWJ4g4WrPT-257" style="rounded=0;orthogonalLoop=1;jettySize=auto;html=1;exitX=0.5;exitY=0;exitDx=0;exitDy=0;entryX=0.5;entryY=1;entryDx=0;entryDy=0;" edge="1" parent="1" source="4-7ApPX3nYWWJ4g4WrPT-202" target="4-7ApPX3nYWWJ4g4WrPT-216">
          <mxGeometry relative="1" as="geometry" />
        </mxCell>
        <mxCell id="4-7ApPX3nYWWJ4g4WrPT-202" value="" style="ellipse;whiteSpace=wrap;html=1;" vertex="1" parent="1">
          <mxGeometry x="2035" y="1760" width="50" height="40" as="geometry" />
        </mxCell>
        <mxCell id="4-7ApPX3nYWWJ4g4WrPT-221" value="" style="edgeStyle=orthogonalEdgeStyle;rounded=0;orthogonalLoop=1;jettySize=auto;html=1;" edge="1" parent="1" source="4-7ApPX3nYWWJ4g4WrPT-204" target="4-7ApPX3nYWWJ4g4WrPT-214">
          <mxGeometry relative="1" as="geometry" />
        </mxCell>
        <mxCell id="4-7ApPX3nYWWJ4g4WrPT-258" style="rounded=0;orthogonalLoop=1;jettySize=auto;html=1;exitX=0.5;exitY=0;exitDx=0;exitDy=0;entryX=0.5;entryY=1;entryDx=0;entryDy=0;" edge="1" parent="1" source="4-7ApPX3nYWWJ4g4WrPT-283" target="4-7ApPX3nYWWJ4g4WrPT-213">
          <mxGeometry relative="1" as="geometry" />
        </mxCell>
        <mxCell id="4-7ApPX3nYWWJ4g4WrPT-259" style="rounded=0;orthogonalLoop=1;jettySize=auto;html=1;exitX=0.5;exitY=0;exitDx=0;exitDy=0;entryX=0.5;entryY=1;entryDx=0;entryDy=0;" edge="1" parent="1" source="4-7ApPX3nYWWJ4g4WrPT-204" target="4-7ApPX3nYWWJ4g4WrPT-215">
          <mxGeometry relative="1" as="geometry" />
        </mxCell>
        <mxCell id="4-7ApPX3nYWWJ4g4WrPT-260" style="rounded=0;orthogonalLoop=1;jettySize=auto;html=1;exitX=0.5;exitY=0;exitDx=0;exitDy=0;entryX=0.5;entryY=1;entryDx=0;entryDy=0;" edge="1" parent="1" source="4-7ApPX3nYWWJ4g4WrPT-204" target="4-7ApPX3nYWWJ4g4WrPT-217">
          <mxGeometry relative="1" as="geometry" />
        </mxCell>
        <mxCell id="4-7ApPX3nYWWJ4g4WrPT-261" style="rounded=0;orthogonalLoop=1;jettySize=auto;html=1;exitX=0.5;exitY=0;exitDx=0;exitDy=0;entryX=0.5;entryY=1;entryDx=0;entryDy=0;" edge="1" parent="1" source="4-7ApPX3nYWWJ4g4WrPT-204" target="4-7ApPX3nYWWJ4g4WrPT-216">
          <mxGeometry relative="1" as="geometry" />
        </mxCell>
        <mxCell id="4-7ApPX3nYWWJ4g4WrPT-204" value="" style="ellipse;whiteSpace=wrap;html=1;" vertex="1" parent="1">
          <mxGeometry x="1715" y="1760" width="50" height="40" as="geometry" />
        </mxCell>
        <mxCell id="4-7ApPX3nYWWJ4g4WrPT-220" value="" style="edgeStyle=orthogonalEdgeStyle;rounded=0;orthogonalLoop=1;jettySize=auto;html=1;" edge="1" parent="1" source="4-7ApPX3nYWWJ4g4WrPT-205" target="4-7ApPX3nYWWJ4g4WrPT-215">
          <mxGeometry relative="1" as="geometry" />
        </mxCell>
        <mxCell id="4-7ApPX3nYWWJ4g4WrPT-262" style="rounded=0;orthogonalLoop=1;jettySize=auto;html=1;exitX=0.5;exitY=0;exitDx=0;exitDy=0;entryX=0.5;entryY=1;entryDx=0;entryDy=0;" edge="1" parent="1" source="4-7ApPX3nYWWJ4g4WrPT-205" target="4-7ApPX3nYWWJ4g4WrPT-217">
          <mxGeometry relative="1" as="geometry" />
        </mxCell>
        <mxCell id="4-7ApPX3nYWWJ4g4WrPT-263" style="rounded=0;orthogonalLoop=1;jettySize=auto;html=1;exitX=0.5;exitY=0;exitDx=0;exitDy=0;entryX=0.5;entryY=1;entryDx=0;entryDy=0;" edge="1" parent="1" source="4-7ApPX3nYWWJ4g4WrPT-205" target="4-7ApPX3nYWWJ4g4WrPT-216">
          <mxGeometry relative="1" as="geometry" />
        </mxCell>
        <mxCell id="4-7ApPX3nYWWJ4g4WrPT-264" style="rounded=0;orthogonalLoop=1;jettySize=auto;html=1;exitX=0.5;exitY=0;exitDx=0;exitDy=0;entryX=0.5;entryY=1;entryDx=0;entryDy=0;" edge="1" parent="1" source="4-7ApPX3nYWWJ4g4WrPT-205" target="4-7ApPX3nYWWJ4g4WrPT-213">
          <mxGeometry relative="1" as="geometry" />
        </mxCell>
        <mxCell id="4-7ApPX3nYWWJ4g4WrPT-265" style="rounded=0;orthogonalLoop=1;jettySize=auto;html=1;exitX=0.5;exitY=0;exitDx=0;exitDy=0;entryX=0.5;entryY=1;entryDx=0;entryDy=0;" edge="1" parent="1" source="4-7ApPX3nYWWJ4g4WrPT-205" target="4-7ApPX3nYWWJ4g4WrPT-214">
          <mxGeometry relative="1" as="geometry" />
        </mxCell>
        <mxCell id="4-7ApPX3nYWWJ4g4WrPT-205" value="" style="ellipse;whiteSpace=wrap;html=1;" vertex="1" parent="1">
          <mxGeometry x="1475" y="1760" width="50" height="40" as="geometry" />
        </mxCell>
        <mxCell id="4-7ApPX3nYWWJ4g4WrPT-218" value="" style="edgeStyle=orthogonalEdgeStyle;rounded=0;orthogonalLoop=1;jettySize=auto;html=1;" edge="1" parent="1" source="4-7ApPX3nYWWJ4g4WrPT-206" target="4-7ApPX3nYWWJ4g4WrPT-216">
          <mxGeometry relative="1" as="geometry" />
        </mxCell>
        <mxCell id="4-7ApPX3nYWWJ4g4WrPT-271" value="" style="edgeStyle=orthogonalEdgeStyle;rounded=0;orthogonalLoop=1;jettySize=auto;html=1;" edge="1" parent="1" source="4-7ApPX3nYWWJ4g4WrPT-206" target="4-7ApPX3nYWWJ4g4WrPT-216">
          <mxGeometry relative="1" as="geometry" />
        </mxCell>
        <mxCell id="4-7ApPX3nYWWJ4g4WrPT-272" value="" style="edgeStyle=orthogonalEdgeStyle;rounded=0;orthogonalLoop=1;jettySize=auto;html=1;" edge="1" parent="1" source="4-7ApPX3nYWWJ4g4WrPT-206" target="4-7ApPX3nYWWJ4g4WrPT-216">
          <mxGeometry relative="1" as="geometry" />
        </mxCell>
        <mxCell id="4-7ApPX3nYWWJ4g4WrPT-273" style="rounded=0;orthogonalLoop=1;jettySize=auto;html=1;exitX=0.5;exitY=0;exitDx=0;exitDy=0;entryX=0.5;entryY=1;entryDx=0;entryDy=0;" edge="1" parent="1" source="4-7ApPX3nYWWJ4g4WrPT-206" target="4-7ApPX3nYWWJ4g4WrPT-217">
          <mxGeometry relative="1" as="geometry" />
        </mxCell>
        <mxCell id="4-7ApPX3nYWWJ4g4WrPT-274" style="rounded=0;orthogonalLoop=1;jettySize=auto;html=1;exitX=0.5;exitY=0;exitDx=0;exitDy=0;entryX=0.5;entryY=1;entryDx=0;entryDy=0;" edge="1" parent="1" source="4-7ApPX3nYWWJ4g4WrPT-206" target="4-7ApPX3nYWWJ4g4WrPT-215">
          <mxGeometry relative="1" as="geometry" />
        </mxCell>
        <mxCell id="4-7ApPX3nYWWJ4g4WrPT-275" style="rounded=0;orthogonalLoop=1;jettySize=auto;html=1;exitX=0.5;exitY=0;exitDx=0;exitDy=0;entryX=0.5;entryY=1;entryDx=0;entryDy=0;" edge="1" parent="1" source="4-7ApPX3nYWWJ4g4WrPT-206" target="4-7ApPX3nYWWJ4g4WrPT-214">
          <mxGeometry relative="1" as="geometry" />
        </mxCell>
        <mxCell id="4-7ApPX3nYWWJ4g4WrPT-276" style="rounded=0;orthogonalLoop=1;jettySize=auto;html=1;exitX=0.5;exitY=0;exitDx=0;exitDy=0;entryX=0.5;entryY=1;entryDx=0;entryDy=0;" edge="1" parent="1" source="4-7ApPX3nYWWJ4g4WrPT-206" target="4-7ApPX3nYWWJ4g4WrPT-213">
          <mxGeometry relative="1" as="geometry" />
        </mxCell>
        <mxCell id="4-7ApPX3nYWWJ4g4WrPT-206" value="" style="ellipse;whiteSpace=wrap;html=1;" vertex="1" parent="1">
          <mxGeometry x="994" y="1754" width="50" height="40" as="geometry" />
        </mxCell>
        <mxCell id="4-7ApPX3nYWWJ4g4WrPT-219" value="" style="edgeStyle=orthogonalEdgeStyle;rounded=0;orthogonalLoop=1;jettySize=auto;html=1;" edge="1" parent="1" source="4-7ApPX3nYWWJ4g4WrPT-207" target="4-7ApPX3nYWWJ4g4WrPT-217">
          <mxGeometry relative="1" as="geometry" />
        </mxCell>
        <mxCell id="4-7ApPX3nYWWJ4g4WrPT-266" style="rounded=0;orthogonalLoop=1;jettySize=auto;html=1;exitX=0.5;exitY=0;exitDx=0;exitDy=0;entryX=0.5;entryY=1;entryDx=0;entryDy=0;" edge="1" parent="1" source="4-7ApPX3nYWWJ4g4WrPT-207" target="4-7ApPX3nYWWJ4g4WrPT-216">
          <mxGeometry relative="1" as="geometry" />
        </mxCell>
        <mxCell id="4-7ApPX3nYWWJ4g4WrPT-267" style="rounded=0;orthogonalLoop=1;jettySize=auto;html=1;exitX=0.5;exitY=0;exitDx=0;exitDy=0;entryX=0.5;entryY=1;entryDx=0;entryDy=0;" edge="1" parent="1" source="4-7ApPX3nYWWJ4g4WrPT-207" target="4-7ApPX3nYWWJ4g4WrPT-215">
          <mxGeometry relative="1" as="geometry" />
        </mxCell>
        <mxCell id="4-7ApPX3nYWWJ4g4WrPT-268" style="rounded=0;orthogonalLoop=1;jettySize=auto;html=1;exitX=0.5;exitY=0;exitDx=0;exitDy=0;entryX=0.5;entryY=1;entryDx=0;entryDy=0;" edge="1" parent="1" source="4-7ApPX3nYWWJ4g4WrPT-207" target="4-7ApPX3nYWWJ4g4WrPT-214">
          <mxGeometry relative="1" as="geometry" />
        </mxCell>
        <mxCell id="4-7ApPX3nYWWJ4g4WrPT-269" style="rounded=0;orthogonalLoop=1;jettySize=auto;html=1;exitX=0.5;exitY=0;exitDx=0;exitDy=0;entryX=0.5;entryY=1;entryDx=0;entryDy=0;" edge="1" parent="1" source="4-7ApPX3nYWWJ4g4WrPT-207" target="4-7ApPX3nYWWJ4g4WrPT-213">
          <mxGeometry relative="1" as="geometry" />
        </mxCell>
        <mxCell id="4-7ApPX3nYWWJ4g4WrPT-270" style="rounded=0;orthogonalLoop=1;jettySize=auto;html=1;exitX=0.5;exitY=0;exitDx=0;exitDy=0;entryX=0.5;entryY=1;entryDx=0;entryDy=0;" edge="1" parent="1" source="4-7ApPX3nYWWJ4g4WrPT-207" target="4-7ApPX3nYWWJ4g4WrPT-215">
          <mxGeometry relative="1" as="geometry" />
        </mxCell>
        <mxCell id="4-7ApPX3nYWWJ4g4WrPT-207" value="" style="ellipse;whiteSpace=wrap;html=1;" vertex="1" parent="1">
          <mxGeometry x="1235" y="1754" width="50" height="40" as="geometry" />
        </mxCell>
        <mxCell id="4-7ApPX3nYWWJ4g4WrPT-227" style="edgeStyle=orthogonalEdgeStyle;rounded=0;orthogonalLoop=1;jettySize=auto;html=1;exitX=0.5;exitY=0;exitDx=0;exitDy=0;entryX=0.5;entryY=1;entryDx=0;entryDy=0;" edge="1" parent="1" source="4-7ApPX3nYWWJ4g4WrPT-213" target="4-7ApPX3nYWWJ4g4WrPT-201">
          <mxGeometry relative="1" as="geometry" />
        </mxCell>
        <mxCell id="4-7ApPX3nYWWJ4g4WrPT-213" value="" style="ellipse;whiteSpace=wrap;html=1;" vertex="1" parent="1">
          <mxGeometry x="2035" y="1606" width="50" height="40" as="geometry" />
        </mxCell>
        <mxCell id="4-7ApPX3nYWWJ4g4WrPT-226" style="edgeStyle=orthogonalEdgeStyle;rounded=0;orthogonalLoop=1;jettySize=auto;html=1;exitX=0.5;exitY=0;exitDx=0;exitDy=0;entryX=0.5;entryY=1;entryDx=0;entryDy=0;" edge="1" parent="1" source="4-7ApPX3nYWWJ4g4WrPT-214" target="4-7ApPX3nYWWJ4g4WrPT-200">
          <mxGeometry relative="1" as="geometry" />
        </mxCell>
        <mxCell id="4-7ApPX3nYWWJ4g4WrPT-214" value="" style="ellipse;whiteSpace=wrap;html=1;" vertex="1" parent="1">
          <mxGeometry x="1715" y="1606" width="50" height="40" as="geometry" />
        </mxCell>
        <mxCell id="4-7ApPX3nYWWJ4g4WrPT-225" style="edgeStyle=orthogonalEdgeStyle;rounded=0;orthogonalLoop=1;jettySize=auto;html=1;exitX=0.5;exitY=0;exitDx=0;exitDy=0;entryX=0.5;entryY=1;entryDx=0;entryDy=0;" edge="1" parent="1" source="4-7ApPX3nYWWJ4g4WrPT-215" target="4-7ApPX3nYWWJ4g4WrPT-199">
          <mxGeometry relative="1" as="geometry" />
        </mxCell>
        <mxCell id="4-7ApPX3nYWWJ4g4WrPT-215" value="" style="ellipse;whiteSpace=wrap;html=1;" vertex="1" parent="1">
          <mxGeometry x="1475" y="1606" width="50" height="40" as="geometry" />
        </mxCell>
        <mxCell id="4-7ApPX3nYWWJ4g4WrPT-223" style="edgeStyle=orthogonalEdgeStyle;rounded=0;orthogonalLoop=1;jettySize=auto;html=1;exitX=0.5;exitY=0;exitDx=0;exitDy=0;entryX=0.5;entryY=1;entryDx=0;entryDy=0;" edge="1" parent="1" source="4-7ApPX3nYWWJ4g4WrPT-216" target="4-7ApPX3nYWWJ4g4WrPT-197">
          <mxGeometry relative="1" as="geometry" />
        </mxCell>
        <mxCell id="4-7ApPX3nYWWJ4g4WrPT-216" value="" style="ellipse;whiteSpace=wrap;html=1;" vertex="1" parent="1">
          <mxGeometry x="994" y="1600" width="50" height="40" as="geometry" />
        </mxCell>
        <mxCell id="4-7ApPX3nYWWJ4g4WrPT-224" style="edgeStyle=orthogonalEdgeStyle;rounded=0;orthogonalLoop=1;jettySize=auto;html=1;entryX=0.5;entryY=1;entryDx=0;entryDy=0;" edge="1" parent="1" source="4-7ApPX3nYWWJ4g4WrPT-217" target="4-7ApPX3nYWWJ4g4WrPT-198">
          <mxGeometry relative="1" as="geometry" />
        </mxCell>
        <mxCell id="4-7ApPX3nYWWJ4g4WrPT-217" value="" style="ellipse;whiteSpace=wrap;html=1;" vertex="1" parent="1">
          <mxGeometry x="1235" y="1600" width="50" height="40" as="geometry" />
        </mxCell>
        <mxCell id="4-7ApPX3nYWWJ4g4WrPT-277" value=". . .&amp;nbsp;" style="text;html=1;strokeColor=#82b366;fillColor=none;align=center;verticalAlign=middle;whiteSpace=wrap;rounded=0;fontSize=15;fontStyle=1" vertex="1" parent="1">
          <mxGeometry x="1860" y="1419" width="60" height="30" as="geometry" />
        </mxCell>
        <mxCell id="4-7ApPX3nYWWJ4g4WrPT-279" value=". . .&amp;nbsp;" style="text;html=1;strokeColor=none;fillColor=none;align=center;verticalAlign=middle;whiteSpace=wrap;rounded=0;fontSize=15;fontStyle=1" vertex="1" parent="1">
          <mxGeometry x="1860" y="1620" width="60" height="30" as="geometry" />
        </mxCell>
        <mxCell id="4-7ApPX3nYWWJ4g4WrPT-280" value=". . .&amp;nbsp;" style="text;html=1;strokeColor=none;fillColor=none;align=center;verticalAlign=middle;whiteSpace=wrap;rounded=0;fontSize=15;fontStyle=1" vertex="1" parent="1">
          <mxGeometry x="1870" y="1900" width="60" height="30" as="geometry" />
        </mxCell>
        <mxCell id="4-7ApPX3nYWWJ4g4WrPT-281" value=". . .&amp;nbsp;" style="text;html=1;strokeColor=none;fillColor=none;align=center;verticalAlign=middle;whiteSpace=wrap;rounded=0;fontSize=15;fontStyle=1" vertex="1" parent="1">
          <mxGeometry x="1870" y="2053" width="60" height="30" as="geometry" />
        </mxCell>
        <mxCell id="4-7ApPX3nYWWJ4g4WrPT-282" value=". . .&amp;nbsp;" style="text;html=1;strokeColor=none;fillColor=none;align=center;verticalAlign=middle;whiteSpace=wrap;rounded=0;fontSize=15;fontStyle=1" vertex="1" parent="1">
          <mxGeometry x="1870" y="1780" width="60" height="30" as="geometry" />
        </mxCell>
        <mxCell id="4-7ApPX3nYWWJ4g4WrPT-284" value="&lt;h1 style=&quot;font-size: 54px;&quot;&gt;BERT&lt;/h1&gt;" style="text;html=1;strokeColor=none;fillColor=none;align=center;verticalAlign=middle;whiteSpace=wrap;rounded=0;" vertex="1" parent="1">
          <mxGeometry x="1490" y="1210" width="60" height="30" as="geometry" />
        </mxCell>
        <mxCell id="4-7ApPX3nYWWJ4g4WrPT-285" value="" style="shape=flexArrow;endArrow=classic;html=1;rounded=0;exitX=0.5;exitY=0;exitDx=0;exitDy=0;" edge="1" parent="1" source="4-7ApPX3nYWWJ4g4WrPT-197" target="4-7ApPX3nYWWJ4g4WrPT-286">
          <mxGeometry width="50" height="50" relative="1" as="geometry">
            <mxPoint x="1060" y="1620" as="sourcePoint" />
            <mxPoint x="1019" y="1340" as="targetPoint" />
          </mxGeometry>
        </mxCell>
        <mxCell id="4-7ApPX3nYWWJ4g4WrPT-286" value="&lt;font style=&quot;font-size: 17px;&quot;&gt;&lt;b&gt;Class Label&lt;/b&gt;&lt;/font&gt;" style="text;html=1;strokeColor=none;fillColor=none;align=center;verticalAlign=middle;whiteSpace=wrap;rounded=0;" vertex="1" parent="1">
          <mxGeometry x="989" y="1325" width="60" height="30" as="geometry" />
        </mxCell>
        <mxCell id="4-7ApPX3nYWWJ4g4WrPT-288" value="" style="rounded=0;orthogonalLoop=1;jettySize=auto;html=1;exitX=0.5;exitY=0;exitDx=0;exitDy=0;entryX=0.5;entryY=1;entryDx=0;entryDy=0;" edge="1" parent="1" source="4-7ApPX3nYWWJ4g4WrPT-204" target="4-7ApPX3nYWWJ4g4WrPT-283">
          <mxGeometry relative="1" as="geometry">
            <mxPoint x="1740" y="1760" as="sourcePoint" />
            <mxPoint x="2060" y="1646" as="targetPoint" />
          </mxGeometry>
        </mxCell>
        <mxCell id="4-7ApPX3nYWWJ4g4WrPT-289" value="Phân loại Văn bản Đơn" style="text;html=1;strokeColor=none;fillColor=none;align=center;verticalAlign=middle;whiteSpace=wrap;rounded=0;fontSize=36;fontStyle=1" vertex="1" parent="1">
          <mxGeometry x="1325" y="1280" width="505" height="30" as="geometry" />
        </mxCell>
        <mxCell id="4-7ApPX3nYWWJ4g4WrPT-291" style="rounded=0;orthogonalLoop=1;jettySize=auto;html=1;exitX=0.25;exitY=0;exitDx=0;exitDy=0;entryX=0.5;entryY=1;entryDx=0;entryDy=0;dashed=1;dashPattern=12 12;" edge="1" parent="1" source="4-7ApPX3nYWWJ4g4WrPT-290" target="4-7ApPX3nYWWJ4g4WrPT-184">
          <mxGeometry relative="1" as="geometry" />
        </mxCell>
        <mxCell id="4-7ApPX3nYWWJ4g4WrPT-292" style="rounded=0;orthogonalLoop=1;jettySize=auto;html=1;exitX=0.5;exitY=0;exitDx=0;exitDy=0;entryX=0.5;entryY=1;entryDx=0;entryDy=0;dashed=1;dashPattern=12 12;" edge="1" parent="1" source="4-7ApPX3nYWWJ4g4WrPT-290" target="4-7ApPX3nYWWJ4g4WrPT-185">
          <mxGeometry relative="1" as="geometry" />
        </mxCell>
        <mxCell id="4-7ApPX3nYWWJ4g4WrPT-293" style="rounded=0;orthogonalLoop=1;jettySize=auto;html=1;exitX=0.635;exitY=-0.208;exitDx=0;exitDy=0;entryX=0.5;entryY=1;entryDx=0;entryDy=0;exitPerimeter=0;dashed=1;dashPattern=12 12;" edge="1" parent="1" source="4-7ApPX3nYWWJ4g4WrPT-290" target="4-7ApPX3nYWWJ4g4WrPT-188">
          <mxGeometry relative="1" as="geometry" />
        </mxCell>
        <mxCell id="4-7ApPX3nYWWJ4g4WrPT-294" style="rounded=0;orthogonalLoop=1;jettySize=auto;html=1;exitX=0.75;exitY=0;exitDx=0;exitDy=0;entryX=0.5;entryY=1;entryDx=0;entryDy=0;dashed=1;dashPattern=12 12;" edge="1" parent="1" source="4-7ApPX3nYWWJ4g4WrPT-290" target="4-7ApPX3nYWWJ4g4WrPT-187">
          <mxGeometry relative="1" as="geometry" />
        </mxCell>
        <mxCell id="4-7ApPX3nYWWJ4g4WrPT-290" value="Chuỗi văn bản đơn" style="text;html=1;strokeColor=none;fillColor=none;align=center;verticalAlign=middle;whiteSpace=wrap;rounded=0;fontSize=40;fontStyle=0" vertex="1" parent="1">
          <mxGeometry x="1390" y="2240" width="420" height="30" as="geometry" />
        </mxCell>
      </root>
    </mxGraphModel>
  </diagram>
  <diagram id="zfEMkiMud4VMu3YQm-nV" name="Trang-2">
    <mxGraphModel dx="386" dy="676" grid="1" gridSize="10" guides="1" tooltips="1" connect="1" arrows="1" fold="1" page="1" pageScale="1" pageWidth="827" pageHeight="1169" math="0" shadow="0">
      <root>
        <mxCell id="0" />
        <mxCell id="1" parent="0" />
      </root>
    </mxGraphModel>
  </diagram>
</mxfile>
